<svg xmlns="http://www.w3.org/2000/svg" viewBox="0 0 200 200">
    <defs></defs>
    <path d="M157.487 115.107c-1.667.109-1.809 4.713-6.145 8.475a38.609 38.609 0 0 0 5.727-1.8c-.216-.247-.215.122 1.094-4.551a5.4 5.4 0 0 0 .308-1.207.926.926 0 0 0-.984-.917zm-36.238-23.914c-.609-1.273-2.294-.863-3.23.176-.9.875-1.863 2.029-3.1 1.539a.338.338 0 0 1-.225-.348 31.346 31.346 0 0 0 2.88 14.368 23.135 23.135 0 0 1-1.138-3.231 21.616 21.616 0 0 1-.7-4.971 3.479 3.479 0 0 1 1.4-2.967c2.489-2.304 4.542-3.059 4.113-4.566z"
          fill="#bef8d4"></path>
    <path d="M177.106 96.475a30.3 30.3 0 0 0-7.3-16.406 29.9 29.9 0 0 0-14.47-9.888 26.185 26.185 0 0 0-4.5-.813.35.35 0 0 1-.6-.057 43.192 43.192 0 0 0-4.933-.082 41.484 41.484 0 0 0-9.841 1.5c-1.091.31-2.17.67-3.228 1.084-.026.154-.058.308-.081.462-.065.42-.693.248-.646-.164-5.8 2.4-10.212 6.6-13.832 11.846l-.193.289c.018-.009.035-.02.053-.03.276-.139.662.162.459.459a13.507 13.507 0 0 0-1.744 3.507c-.044.135-.1.267-.135.405a29.425 29.425 0 0 0-.726 3.744c.635.07 1.2-.468 1.631-.9a6.966 6.966 0 0 1 1.659-1.381 2.269 2.269 0 0 1 3.158.831.335.335 0 0 1 .067.128 1.911 1.911 0 0 1-.09 1.3 6.138 6.138 0 0 1-2.164 2.225 16.71 16.71 0 0 0-2.548 2.24 2.362 2.362 0 0 0-.676 1.576 11.49 11.49 0 0 0 .094 2.1 24.8 24.8 0 0 0 .819 4.01c.377 1.272 1.358 3.33 1.869 4.753a2.685 2.685 0 0 1 .032 1.163c4.071 7.783 8 10.356 13.26 12.18a33.98 33.98 0 0 0 12.8 1.866 34.429 34.429 0 0 0 4.638-.554 14.549 14.549 0 0 0 5.043-6.56 9.141 9.141 0 0 1 1.128-1.982 1.941 1.941 0 0 1 1.391-.894 1.6 1.6 0 0 1 1.577 2.062 182.756 182.756 0 0 1-1.192 4.226l-.064.222a36.248 36.248 0 0 0 3.719-1.927 40.43 40.43 0 0 0 4.066-2.607.285.285 0 0 1 .311-.007.317.317 0 0 1 .18.385c-.051.127-.11.252-.162.379a45.512 45.512 0 0 1 8.511 5.578c.237.2.666.016.56-.326a48.493 48.493 0 0 0-4.054-8.7 20.363 20.363 0 0 0 6.155-12.983 22.373 22.373 0 0 0-.001-4.259zm-40.689-11.149H153.8a.335.335 0 0 1 0 .67h-17.383a.335.335 0 0 1 0-.67zm12.662 16.137q-4.221-.136-8.443-.269c-.43-.014-.431-.684 0-.67l8.443.269c.431.014.432.684 0 .67zm8.67-7.719q-2.963.35-5.933.634-10.527 1-21.11 1.108a.335.335 0 0 1 0-.67q2.984-.031 5.966-.133 10.566-.362 21.077-1.61c.429-.05.424.621 0 .671z"
          fill="#bef8d4"></path>
    <path d="M114.167 76.153a2.116 2.116 0 0 0-2.538-.553 5.159 5.159 0 0 0-1.661 1.205c.412-.649.911-1.252 1.3-1.912a3.963 3.963 0 0 0 .556-3.129 2.39 2.39 0 0 0-2.391-1.6 4.347 4.347 0 0 0-2.985 1.53c-.821.851-1.572 1.781-2.321 2.7.1-.211.207-.417.288-.617a2.521 2.521 0 0 0 .148-1.648A3.274 3.274 0 0 0 102.249 70c-2.43-.661-4.514 1.358-6.2 2.789a37.464 37.464 0 0 0-3.686 3.416 15.92 15.92 0 0 0-2.918 4.588 18.538 18.538 0 0 0-1.248 5.4 3.581 3.581 0 0 1 .664.28 3.335 3.335 0 0 1 .5.338 9.221 9.221 0 0 1 2.834-4.23 13.211 13.211 0 0 1 10.429-2.963 8.313 8.313 0 0 1 4.759 2.1 8.758 8.758 0 0 1 1.727 2.274 9.505 9.505 0 0 1 .433.891 9.741 9.741 0 0 1 2.315-4.309c.637-.681 1.451-1.2 2.019-1.943a2.2 2.2 0 0 0 .29-2.478z"
          fill="#000001"></path>
    <path d="M109.661 104.174c.572-2.538.969-5.1 1.332-7.672A19.118 19.118 0 0 1 113 89.844a12.83 12.83 0 0 1 3.67-4.312l-.029.056a16.694 16.694 0 0 0-1.934 6.72l-.028.189c0 .024.01.04.01.063a.337.337 0 0 0 .225.348 1.566 1.566 0 0 0 .416.1c1.081.126 1.975-.953 2.687-1.642a3.048 3.048 0 0 1 1.754-.967 1.415 1.415 0 0 1 1.476.791c.429 1.5-1.69 2.324-4.112 4.566a4.118 4.118 0 0 0-1.277 1.8 5.06 5.06 0 0 0-.127 1.17 21.665 21.665 0 0 0 .7 4.971 20.375 20.375 0 0 0 .978 2.832c.054.133.6 1.5.818 2.052a3.767 3.767 0 0 1 .357 1.014 17.161 17.161 0 0 1-.648 4.182 48.564 48.564 0 0 1-3.947 9.882 54.5 54.5 0 0 1-3.433 5.854q.34.107.683.208c.971-1.445 1.848-2.959 2.669-4.473a54.333 54.333 0 0 0 4.333-10.08 23.48 23.48 0 0 0 .952-4.48c.01-.1.023-.2.036-.307a2.684 2.684 0 0 0-.032-1.163c-.51-1.424-1.5-3.492-1.869-4.753a24.8 24.8 0 0 1-.819-4.01 11.4 11.4 0 0 1-.094-2.1 2.369 2.369 0 0 1 .676-1.576 16.758 16.758 0 0 1 2.548-2.24 6.146 6.146 0 0 0 2.164-2.225 1.911 1.911 0 0 0 .09-1.3.328.328 0 0 0-.067-.128 2.269 2.269 0 0 0-3.158-.831 6.966 6.966 0 0 0-1.659 1.381c-.435.43-1 .969-1.631.9a29.6 29.6 0 0 1 .726-3.744c.039-.138.091-.27.135-.405a13.507 13.507 0 0 1 1.744-3.507c.2-.3-.183-.6-.459-.459-.018.01-.035.021-.053.03-3.833 1.962-6.113 6.34-6.864 10.426-.465 2.529-.721 5.087-1.23 7.611a50.718 50.718 0 0 1-1.815 6.969 15.038 15.038 0 0 1-3.424 5.75c.08.235.159.47.239.7 3.187-2.955 4.359-7.435 5.284-11.533zm56.423 12.617a.336.336 0 0 0-.491-.378 46.622 46.622 0 0 1-7.785 4.534c.392-1.336.9-3.107 1.256-4.448a1.6 1.6 0 0 0-2.968-1.168c-1.99 2.662-1.6 6.569-10.3 11.156a44.542 44.542 0 0 1-19.666 5.188c-.182.029.26-.043.263.339-1.167 12.816.571 14.379-.386 14.6h.021a54.373 54.373 0 0 0 32.449-16.493 25.677 25.677 0 0 0 4.892-7.344 95.28 95.28 0 0 0 2.715-5.986zm-7.09 11.776a53.388 53.388 0 0 1-32.661 17.333 67.719 67.719 0 0 1 .109-13.572c11.121-.4 21.312-5.03 25.891-9.683 3.291-3.307 3.578-7.4 5.154-7.538a.926.926 0 0 1 .982.866 4.833 4.833 0 0 1-.306 1.261c-1.267 4.522-1.3 4.312-1.135 4.5a.271.271 0 0 0 .352.123 47.36 47.36 0 0 0 7.605-4.187c-1.819 4.247-3.429 7.73-5.991 10.897z"
          fill="#cd8b57"></path>
    <path d="M97.443 89.018c.145-.408-.507-.585-.646-.179a2.607 2.607 0 0 0 .109 1.951c.175.393.753.052.579-.339a1.944 1.944 0 0 1-.042-1.433zm51.609-28.552c-.788-2.376-1.977-4.983-4.548-5.828a4.136 4.136 0 0 0-2.12-.121c-.506-.543-3.384-3.4-3.818-3.457a14.006 14.006 0 0 1 1.992-1.677c.353-.244.018-.825-.338-.579a14.857 14.857 0 0 0-4.068 4.2c-.235.363.345.7.578.338a14.1 14.1 0 0 1 1.439-1.847c.1.221 1.325.964 3.477 3.231C136 57.132 132.449 65.5 131.5 72.1c.021.472.586.571.646.178a27.858 27.858 0 0 1 5.293-13.225 10.793 10.793 0 0 1 4.708-3.795 33.5 33.5 0 0 1 2.865 3.586c.242.353.824.019.579-.338-2.549-3.669-3.127-3.411-2.318-3.406 2.662.049 4.14 2.73 4.92 4.92a37.7 37.7 0 0 1 2 9.177.356.356 0 0 0 .636.171c.193-.356-.54-5.174-1.777-8.902z"
          fill="#000001"></path>
    <path d="M101.082 107.041a8.893 8.893 0 0 0-11.241-3.458 8.788 8.788 0 0 0-3.1 2.335 2.762 2.762 0 0 0 .087.953 2.247 2.247 0 0 0 .618 1.038 7.573 7.573 0 0 0 2.876 1.525 31 31 0 0 0 10.014 1.1 2.573 2.573 0 0 0 1.269-.7 2.7 2.7 0 0 0 .476-.647 11.567 11.567 0 0 0-.999-2.146z"
          fill="#3859ff"></path>
    <path d="M126.006 138.455c.141-6.093.719-6.719.087-6.771a46.221 46.221 0 0 1-17.69-2.913c-2.309-8.432-4.437-14.225-6.036-18.8a3.674 3.674 0 0 1-3.468 1.294c-3.808-.02-12.1-.739-12.8-4.542-.852 1.154-1.625 2.38-2.417 3.571-9.121 13.709-19.329 32-23.365 48.1a.343.343 0 0 0 .153.378c16.582 10.089 38.9 8.569 55.321 0a.34.34 0 0 0 .153-.378c-.964-3.843-1.891-7.7-2.848-11.54a57.5 57.5 0 0 0 12.918-.241c.742-.172-.179-.799-.008-8.158zM95.391 122.57c7.1 3.913 9.55 3.368 9.281 4.23a.337.337 0 0 1-.4.226 47.732 47.732 0 0 1-9.22-3.877c-.377-.208-.039-.787.339-.579zm13.46 23.3a53.553 53.553 0 0 1-21.076-5.686c-.386-.2-.046-.774.338-.579a52.9 52.9 0 0 0 20.738 5.595c.429.023.431.693 0 .668z"
          fill="#3859ff"></path>
    <path d="M68.5 162.9c-.037-.426-.708-.43-.67 0 .728 8.27 2.272 29.461 2.421 31.778.028.428.7.431.671 0-.536-8.284-2.222-29.464-2.422-31.778zm41.962-.105c-.092-.421-.738-.243-.646.178a110.587 110.587 0 0 1 2.368 29.466c-.024.432.647.43.67 0a111.231 111.231 0 0 0-2.392-29.644z"
          fill="#c98bef"></path>
    <path d="M106.875 91.618a9.718 9.718 0 0 1-6.936.308c-.265-.118-.687.158-.459.458a9.8 9.8 0 0 0 1.845 2.079 3.93 3.93 0 0 0 4.839-.324 11.035 11.035 0 0 0 1.14-2.013c.218-.226-.073-.671-.429-.508z"
          fill="#000001"></path>
    <path d="M97.127 167.863c-.068-.426-.714-.245-.646.178 1.14 8.816-1.022 16.447-.071 24.4.055.422.726.428.67 0-.901-8.941 1.265-16.531.047-24.578z"
          fill="#c98bef"></path>
    <path d="M74.2 81.44c-.006-.722-.278-.058-16.609.529.019.087.042.173.06.261.085.422-.561.6-.647.178-.028-.139-.064-.276-.094-.415-18.065.648-16.3-.079-16.644.762-.159.4-.808.222-.647-.178.034-.084.077-.163.112-.246-16.076.058-16.109-.391-16.331-.008-.17.215-.027 29.719-.077 38.294a.344.344 0 0 0 .335.336 31.348 31.348 0 0 0 7.717-.015 13.358 13.358 0 0 1-.4 2.315c-1.068 5.082-1.412 5.037-1.01 6.032a1.519 1.519 0 0 0 2.541.161c1.9-2.105 7.017-7.763 7.671-8.485 14.312-.754 13.15.931 27.868-.581 2.212-.226 4.412-.485 6.6-.857.783-.223-.873-8.805-.445-38.083zM47.626 91.873c-.024-.432.646-.429.671 0a84.483 84.483 0 0 1-.209 12.435c-.039.427-.709.429-.67 0a84.621 84.621 0 0 0 .208-12.435zm.035 14.53a3.382 3.382 0 0 1 .162 1.942c-.084.423-.73.243-.647-.178a2.751 2.751 0 0 0-.161-1.586c-.161-.402.485-.575.646-.181zm3.245 1.857v-2.732a.336.336 0 0 1 .671 0v2.732a.336.336 0 0 1-.671 0zm1.255-5.958a.336.336 0 0 1-.671 0l.256-10.436a.336.336 0 0 1 .671 0c-.085 3.479-.144 6.958-.256 10.434zm-9.155 5.377q.129-.869.26-1.737c.063-.425.709-.244.646.178l-.26 1.737c-.064.426-.71.243-.646-.178zm.573-4.392c-.054.422-.725.426-.671 0a63.836 63.836 0 0 0 .459-10.678c-.018-.433.653-.431.671 0a64.054 64.054 0 0 1-.459 10.678z"
          fill="#6bc4ff"></path>
    <path d="M109.924 85.967a8.177 8.177 0 0 0-.376-1.088 9.634 9.634 0 0 0-.433-.891 8.758 8.758 0 0 0-1.727-2.274 8.306 8.306 0 0 0-4.759-2.1A13.208 13.208 0 0 0 92.2 82.581a9.228 9.228 0 0 0-2.834 4.23 3.547 3.547 0 0 0-.5-.338 3.65 3.65 0 0 0-.664-.28 3.241 3.241 0 0 0-3.636 1.129 3.619 3.619 0 0 0-.585 2.664 3.348 3.348 0 0 0 1.807 2.39 5.326 5.326 0 0 0 3.806.395 56.6 56.6 0 0 1-1.394 5.574c-.351 1.2-.719 2.4-1.081 3.593-.35 1.157-.763 2.326-1.012 3.509a3.282 3.282 0 0 0-.009 1.28 3.181 3.181 0 0 0 .719 1.5 7.1 7.1 0 0 0 2.849 1.69 25.6 25.6 0 0 0 7.063 1.268c.722.052 1.446.083 2.171.087a6.323 6.323 0 0 0 1.814-.144 3.216 3.216 0 0 0 1.134-.61 3.407 3.407 0 0 0 .52-.54 3.522 3.522 0 0 0 .55-1.058q1.595-5.331 2.742-10.787a10.883 10.883 0 0 0 3.573-4.658 11.477 11.477 0 0 0 .691-7.508zM96.8 88.839c.139-.406.787-.23.646.179a1.915 1.915 0 0 0 .042 1.433c.175.391-.4.732-.579.339a2.6 2.6 0 0 1-.109-1.951zm4.528 5.624a9.823 9.823 0 0 1-1.845-2.079c-.227-.3.194-.577.459-.458a7.641 7.641 0 0 0 3.48.466 9.041 9.041 0 0 0 3.456-.774.355.355 0 0 1 .467.167.468.468 0 0 1 .024.072.266.266 0 0 1-.062.269 10.968 10.968 0 0 1-1.14 2.013 3.93 3.93 0 0 1-4.842.324zm7.542-4.858c.173.392-.4.732-.579.339a2.611 2.611 0 0 1-.109-1.951c.139-.406.787-.23.647.179a1.9 1.9 0 0 0 .038 1.433zm-22.023-.342a7.409 7.409 0 0 1 2.234.476c.4.153.225.8-.178.646a6.813 6.813 0 0 0-2.056-.452c-.432-.025-.433-.695-.003-.67zm15.426 19.476a2.51 2.51 0 0 1-.192.446 2.731 2.731 0 0 1-.476.647 2.566 2.566 0 0 1-1.269.7 30.586 30.586 0 0 1-10.014-1.1 7.581 7.581 0 0 1-2.876-1.525 2.247 2.247 0 0 1-.618-1.038 2.76 2.76 0 0 1-.087-.953 4.057 4.057 0 0 1 .136-.758c.608-2.2 1.31-4.379 1.953-6.572.474-1.62.916-3.253 1.258-4.9a9.837 9.837 0 0 0 3.3 3.685 13.409 13.409 0 0 0 5.879 2.092 9.42 9.42 0 0 0 5.6-.84c-.729 3.401-1.552 6.789-2.597 10.116z"
          fill="#cd8b57"></path>
    <path d="M58.8 70.772c-3.313-2.2-3.512-3.372-3.988-2.865-.287.309.051.556 1.061 1.451l-3.1 3.308c-4.828-1.806-11.225 5.047-13.162 9.911-.161.4.488.573.647.178 1.741-4.319 7.608-10.849 12-9.544l-1.026 1.1c-.294.314.179.79.474.474l1.223-1.307a4.941 4.941 0 0 1 2.129 2.675A32.488 32.488 0 0 1 57 82.408c.086.423.732.244.647-.178-.481-2.367-1.687-6.619-3.236-8.478a4.088 4.088 0 0 0-1-.789q1.466-1.564 2.93-3.131c.1-.13.013.119 2.116 1.519.369.239.705-.341.343-.579z"
          fill="#000001"></path>
    <path d="M118.789 62c-.658-1.956-2.328-4.545-2.384-6.732-.249-9.947-1-20.48-2.1-30.609-.1-.524 1.523-.315-19.418-.1-.058.276-.454.435-.6.121-.079-.168 2.451-.134-32.88.261-.082.112-.169.219-.25.332-.247.342-.81.022-.586-.323-19.958.239-18.987.1-18.994.574-.468 34.5-.6 32.466-.1 32.47 10.987-.479 58.532-.007 70.37-.095a67.453 67.453 0 0 0 5.082 5c.407.36.862.63 1.4.33a1.031 1.031 0 0 0 .46-1.229zM59.335 43.579l-4.852-3.8a.338.338 0 0 1 0-.475 13.887 13.887 0 0 1 3.649-2.909c.378-.209.716.37.338.578a13.341 13.341 0 0 0-3.252 2.536l4.591 3.6c.34.262-.138.733-.474.47zm-9.9-4.039c.156-.347.561-.529.868-.718l3.78-2.324c.368-.227.7.354.338.579-4.613 2.839-4.44 2.633-4.288 2.878a10.994 10.994 0 0 0 3.01 1.988c.392.179.051.757-.339.579a11.787 11.787 0 0 1-2.256-1.347c-.463-.35-1.435-.93-1.117-1.635zM80.8 45.794a76.61 76.61 0 0 0-11.183-.236c-.432.022-.429-.648 0-.67a76.191 76.191 0 0 1 11.183.235c.427.04.43.711 0 .671zm-17.89-5.472c-.429-.023-.43-.694 0-.671a153.075 153.075 0 0 0 26.834-.9c.428-.052.423.619 0 .67a153.194 153.194 0 0 1-26.834.901zm28.377-4.109c-.333-.275.144-.747.474-.475 6.2 5.12 6.512 4.972 6.1 5.383a24.192 24.192 0 0 1-3.712 2.418c-.382.2-.72-.377-.338-.579a23.322 23.322 0 0 0 3.263-2.09q-2.92-2.297-5.787-4.657zm6.418 7.987c-.334.265-.812-.207-.474-.474 3.806-3.007 4.055-3.084 4.059-3.455-.061-.627-.682-.907-5.159-4.075-.35-.247-.015-.828.339-.579 4.768 3.371 4.92 3.366 5.346 4.089.551 1.085-.223 1.424-4.111 4.494z"
          fill="#fcafb7"></path>
    <path d="M94.863 24.34a43.988 43.988 0 0 0-4.872-8.119c-1.75-2.31-3.775-4.514-6.655-5.33a11.147 11.147 0 0 0-5.979.008A22.547 22.547 0 0 1 75.4 7.717c-.079-.147-.332.186 1.912-2.141.3-.311-.173-.786-.474-.474l-4.113 4.265c-.3.31.174.786.474.474L74.86 8.12a22.685 22.685 0 0 0 1.81 2.972c-3.441 1.1-6.571 3.529-9.157 5.943a52.618 52.618 0 0 0-6.944 7.913c-.224.345.339.665.586.323 3.6-4.989 10.046-11.885 15.953-13.6a22.9 22.9 0 0 0 2.06 2.362.336.336 0 0 0 .475-.474 22.315 22.315 0 0 1-1.826-2.073c4.665-1.127 8.26.656 11.131 4.477a43.732 43.732 0 0 1 5.337 8.72c.184.393.75.028.578-.343zM180.3 60.646a101.1 101.1 0 0 1-6.361 10.986c-.24.36.34.7.579.338a100.5 100.5 0 0 0 6.361-10.985c.195-.385-.379-.725-.579-.339zm8.924 6.571a49.719 49.719 0 0 0-11.99 6.748c-.338.258 0 .841.338.579a49.1 49.1 0 0 1 11.83-6.68c.398-.156.225-.805-.178-.647zm.893 7.683a29.131 29.131 0 0 1-9.741 2.316c-.429.026-.432.7 0 .67a30.121 30.121 0 0 0 10.08-2.407c.395-.169.054-.746-.339-.579zM33.225 30.286c.17-4.913 3.048-7.667 6.484-12 .265-.335-.207-.813-.475-.475-3.836 4.84-6.5 7.382-6.68 12.473-.013.434.656.434.671.002zM36.229 15.5c.337-.269-.139-.74-.474-.474a22.877 22.877 0 0 0-8.523 16.513c-.023.432.647.43.671 0A22.22 22.22 0 0 1 36.229 15.5zm72.597 72.672c.144-.408-.508-.585-.647-.179a2.616 2.616 0 0 0 .109 1.951c.176.393.753.053.579-.339a1.939 1.939 0 0 1-.041-1.433zm-19.748 1.567a7.343 7.343 0 0 0-2.234-.476c-.431-.026-.43.645 0 .67a6.79 6.79 0 0 1 2.056.452c.4.155.577-.493.178-.646zM136.417 86c18.682 0 17.722.156 17.706-.347a.335.335 0 0 0-.323-.323h-17.383a.335.335 0 0 0 0 .67zm-5.711 9.486a228.151 228.151 0 0 0 27.043-1.742c.424-.05.429-.721 0-.671-21.245 2.519-27.4 1.112-27.367 2.09a.332.332 0 0 0 .324.323zm18.373 5.307q-4.221-.137-8.443-.269c-.431-.014-.43.657 0 .67l8.443.269c.432.014.431-.656 0-.67zM50.544 41.175a11.808 11.808 0 0 0 2.256 1.347c.39.178.731-.4.339-.579a11 11 0 0 1-3.01-1.988c-.149-.242-.359-.02 4.288-2.878.367-.226.03-.806-.338-.579-4.629 2.846-4.5 2.717-4.648 3.042-.318.704.653 1.286 1.113 1.635zm3.939-1.398 4.852 3.8c.335.263.814-.208.474-.474l-4.591-3.6a13.341 13.341 0 0 1 3.252-2.536c.377-.208.04-.787-.338-.578a13.867 13.867 0 0 0-3.649 2.911.34.34 0 0 0 0 .477zm8.427.545a153.225 153.225 0 0 0 26.834-.9c.423-.051.428-.722 0-.67a153.106 153.106 0 0 1-26.834.9c-.431-.025-.429.648 0 .67zm34.163.548a23.322 23.322 0 0 1-3.263 2.09c-.382.2-.044.78.338.579a24.192 24.192 0 0 0 3.712-2.418c.409-.409.112-.252-6.1-5.383-.33-.272-.807.2-.474.475q2.865 2.364 5.787 4.657z"
          fill="#000001"></path>
    <path d="M101.29 40.27c0 .365-.165.38-4.059 3.455-.339.268.139.739.474.474 5.793-4.573 5.987-3.481-1.235-8.583-.354-.249-.689.332-.339.579 4.68 3.311 5.102 3.466 5.159 4.075zm-57.711 63.017a64.054 64.054 0 0 0 .459-10.678c-.018-.431-.689-.433-.671 0a63.836 63.836 0 0 1-.459 10.678c-.054.426.617.422.671 0zm-.313 2.655-.26 1.737c-.064.422.583.605.646.178l.26-1.737c.063-.42-.583-.603-.646-.178zm4.822-1.634a84.486 84.486 0 0 0 .212-12.435c-.025-.429-.7-.432-.671 0a84.485 84.485 0 0 1-.208 12.435c-.042.429.628.427.667 0zm-.912 3.859c-.082.421.563.6.647.178a3.39 3.39 0 0 0-.162-1.942c-.158-.4-.807-.224-.646.178a2.751 2.751 0 0 1 .161 1.586zm4.985-5.867c.109-3.478.17-6.957.256-10.436a.337.337 0 0 0-.348-.323c-.448.015-.309-.315-.579 10.759a.336.336 0 0 0 .671 0zm-.584 5.96v-2.732a.336.336 0 0 0-.671 0v2.732a.336.336 0 0 0 .671 0zM80.8 45.123a76.467 76.467 0 0 0-11.183-.235c-.429.022-.431.693 0 .67a76.467 76.467 0 0 1 11.183.236c.43.04.427-.631 0-.671zm-15.681 87.055c.23-.366-.351-.7-.579-.338a69.891 69.891 0 0 0-9.325 23.454c-.084.421.562.6.646.178a69.272 69.272 0 0 1 9.258-23.294zm-8.032 3.97a.336.336 0 0 0-.579-.338 43.8 43.8 0 0 0-6.2 23.728c.012.431.683.433.67 0a44.612 44.612 0 0 1 6.109-23.39zm-40.85-21.72L9.6 116.185a.336.336 0 0 0 .178.647l6.634-1.758a.335.335 0 0 0-.175-.646zm.903 3.578q-1.447 3.185-2.9 6.371c-.177.39.4.731.58.339l2.894-6.372c.186-.389-.395-.731-.574-.338z"
          fill="#000001"></path>
    <path d="M131.662 140.268a2.846 2.846 0 0 1-3.152-.391c-.323-.284-.8.188-.474.474a3.546 3.546 0 0 0 3.964.5c.384-.202.046-.779-.338-.583z"
          fill="#cd8b57"></path>
    <path d="M94.128 86.985a2.388 2.388 0 0 1 2.123-1.675c.428-.025.431-.7 0-.67a3.086 3.086 0 0 0-2.77 2.167c-.127.413.519.593.647.178zm12.637-1.452a1.968 1.968 0 0 1 2.631.875c.192.386.77.047.578-.338a2.654 2.654 0 0 0-3.548-1.116c-.381.201-.046.774.339.579z"
          fill="#000001"></path>
</svg>