<svg xmlns="http://www.w3.org/2000/svg" viewBox="0 0 200 200">
    <defs></defs>
    <path d="M83.466 93.811c.455-.491.9-.982 1.358-1.472.657 1.258 2.328 1.654 3.69 1.613a19.218 19.218 0 0 0 2.965-.522 4.463 4.463 0 0 1 3.07.219c.851.491 1.367 1.467 2.49 1.3.866-.125 1.467-.893 2.307-1.049.877-.167 1.41.861 1.869 1.43a3.352 3.352 0 0 0 1.843 1.216c1.493.355 3.069-.188 4.5-.574 1.274-.345 2.9-.851 4.135-.13a4.922 4.922 0 0 1 .918.824 2.08 2.08 0 0 0 1.457.632 8.717 8.717 0 0 0 1.67-.256 7.446 7.446 0 0 1 1.6-.1 28.985 28.985 0 0 1 6.311 1.451 15.309 15.309 0 0 0 3.147.553 9.835 9.835 0 0 0 3.258-.469 4.251 4.251 0 0 1 1.983-.115c.674.12 1.342.271 2.011.412 1.32.272 2.641.548 3.961.82.648.136 1.3.267 1.947.4.491.1.7-.653.209-.752-2.615-.543-5.23-1.133-7.856-1.618a4.98 4.98 0 0 0-1.885-.037c-.589.115-1.158.34-1.748.46a8.4 8.4 0 0 1-3.122-.021c-2.109-.366-4.108-1.19-6.207-1.608a10.513 10.513 0 0 0-3.157-.219c-.549.057-1.081.2-1.624.282a1.531 1.531 0 0 1-1.467-.439 3.806 3.806 0 0 0-1.9-1.232 5.49 5.49 0 0 0-2.182.016c-1.5.256-2.929.877-4.442 1.018a3.334 3.334 0 0 1-1.921-.282c-.731-.4-1.1-1.169-1.655-1.754a1.956 1.956 0 0 0-2.323-.5c-.663.292-1.493 1.153-2.271.8a6.625 6.625 0 0 1-1.127-.908 3.337 3.337 0 0 0-1.373-.616 7.808 7.808 0 0 0-3.148.2 10.444 10.444 0 0 1-2.777.381 3.382 3.382 0 0 1-2.135-.752 1.732 1.732 0 0 1-.5-.919.394.394 0 0 0-.653-.172c-.595.647-1.19 1.289-1.785 1.937-.339.365.214.918.553.548m23.429 13.065a3.323 3.323 0 0 0 .935.877 2.183 2.183 0 0 0 1.31.193c.919-.121 1.858-.653 2.793-.366a5.684 5.684 0 0 1 1.294.7 5.526 5.526 0 0 0 1.394.669 16.613 16.613 0 0 0 3.555.392c2.49.172 4.98.354 7.475.516 1.237.078 2.48.146 3.717.136 1.117-.011 2.229-.079 3.341-.136a20.05 20.05 0 0 1 6.562.4 9.419 9.419 0 0 1 1.518.58c.449.219.846-.454.392-.674-4.035-1.973-8.675-.862-12.972-.966-2.469-.062-4.933-.287-7.392-.459-1.226-.084-2.453-.173-3.675-.256a6.981 6.981 0 0 1-3.257-.72 4.773 4.773 0 0 0-2.631-1.054 6.453 6.453 0 0 0-1.415.282 3.124 3.124 0 0 1-1.326.177 1.756 1.756 0 0 1-.981-.746 2.464 2.464 0 0 0-.945-.778 3.322 3.322 0 0 0-2.286.292 1.9 1.9 0 0 1-.992.146c-.412-.094-.616-.532-.851-.846a2.036 2.036 0 0 0-2.083-.741 7.787 7.787 0 0 1-2.15.345c-.867-.121-1.024-1.175-1.608-1.681a2.334 2.334 0 0 0-2.417-.131 4.372 4.372 0 0 1-1.305.339 2.719 2.719 0 0 1-1.3-.406 4.255 4.255 0 0 0-1.378-.5 3.894 3.894 0 0 0-1.582.2 3.069 3.069 0 0 1-2.511.14.728.728 0 0 1-.422-.741c.026-.276-.267-.412-.5-.375a3.418 3.418 0 0 0-2.282 1.466c-.287.413.392.8.674.392a2.57 2.57 0 0 1 1.373-.992 1.851 1.851 0 0 0 1.247 1.143 4.649 4.649 0 0 0 2.793-.323 2.5 2.5 0 0 1 1.55-.027c.46.163.877.434 1.332.611a3.719 3.719 0 0 0 2.693-.234 1.98 1.98 0 0 1 1.2-.157c.412.136.61.542.814.887a2.081 2.081 0 0 0 1.957 1.175c.768-.036 1.493-.371 2.261-.4a1.106 1.106 0 0 1 .908.334 6.319 6.319 0 0 0 .867 1.029 2.377 2.377 0 0 0 2.229-.016 3.354 3.354 0 0 1 1.143-.277 1.306 1.306 0 0 1 .934.575m5.211 14.251a1.724 1.724 0 0 0 1.264.861 1.934 1.934 0 0 0 1.2-.454 10.974 10.974 0 0 1 1.206-.876 1.764 1.764 0 0 1 1.446-.027 19.966 19.966 0 0 0 3.028 1.279c1.012.178 2.062.006 3.064.23a1.8 1.8 0 0 1 1.143.71c.313.443.59.908 1.169 1 1.123.188 1.8-1.081 2.824-1.258a6.851 6.851 0 0 1 2.182.193l2.355.376 4.9.783c.491.079.705-.674.209-.751-1.467-.235-2.928-.466-4.4-.7-1.42-.225-2.845-.507-4.275-.668a3.281 3.281 0 0 0-1.791.219c-.5.24-.893.636-1.373.9a.747.747 0 0 1-.59.12c-.245-.088-.381-.37-.516-.569a2.524 2.524 0 0 0-1.165-.96 9.689 9.689 0 0 0-3.006-.319 4.43 4.43 0 0 1-1.566-.391c-.517-.24-1.013-.533-1.535-.762a3.3 3.3 0 0 0-1.577-.35 2.673 2.673 0 0 0-1.388.579 6.418 6.418 0 0 1-1.18.841c-.538.23-.809-.225-1.1-.606a4.6 4.6 0 0 0-6.082-.965c-.412.281-.021.96.392.673a3.825 3.825 0 0 1 5.157.887m18.52 13.16c.485-.229.96-.637 1.519-.428a8.908 8.908 0 0 1 .825.422 9.073 9.073 0 0 0 .918.392 8.532 8.532 0 0 0 3.868.433c.491-.057.5-.84 0-.783a7.949 7.949 0 0 1-3.34-.3 8.706 8.706 0 0 1-1.54-.674 2.012 2.012 0 0 0-1.452-.287 8.9 8.9 0 0 0-1.273.59 2.235 2.235 0 0 1-1.525-.136 4.667 4.667 0 0 0-3.027.287 6.753 6.753 0 0 1-1.5.418 3.127 3.127 0 0 1-1.42-.2c-.914-.333-1.707-.923-2.6-1.305a8.339 8.339 0 0 0-3.148-.464 4.04 4.04 0 0 1-1.608-.3 7.827 7.827 0 0 1-1.21-.809 3.314 3.314 0 0 0-1.436-.657 4.024 4.024 0 0 0-1.9.308 4.214 4.214 0 0 1-1.591.354 1.108 1.108 0 0 1-1.029-.537c-.188-.46-.945-.256-.751.209a2 2 0 0 0 2.124 1.106c1.081-.083 2.151-.934 3.247-.626a4.1 4.1 0 0 1 1.263.752 4.84 4.84 0 0 0 1.342.756c1.1.366 2.276.12 3.4.314a9.833 9.833 0 0 1 2.762 1.232 4.525 4.525 0 0 0 2.923.6c1.044-.178 2-.8 3.08-.83a7.491 7.491 0 0 1 1.618.355 2.279 2.279 0 0 0 1.462-.193"
          fill="#000001"></path>
    <path d="m157.644 25.886-1.7-.422a115.43 115.43 0 0 0-12.434-1.488q-4.245-.384-8.494-.71.15-3.79.293-7.585c.01-.324.026-.642.037-.966l.078-2.041a.4.4 0 0 0-.392-.391c-1.508-.146-3.017-.287-4.521-.433q-3.6-.345-7.2-.684c-.407-.037-.82-.079-1.227-.115a9.527 9.527 0 0 0-.031-1.681 5.42 5.42 0 0 0-1.415-3.43c-1.279-1.216-3.179-1.07-4.745-.579a6.416 6.416 0 0 0-4.547 5.2L106.6 10.3q-4.055-.226-8.112-.459-.939-.055-1.879-.105a.33.33 0 0 0-.334.194.363.363 0 0 0-.058.2V20.7q-6.3-.368-12.591-.731-2.913-.165-5.831-.318c-.892-.047-1.827-.178-2.719-.147-.042 0-.079-.005-.12-.005a.406.406 0 0 0-.261.7.03.03 0 0 0 0 .02c.016.136.063.35.073.408.073.553.1 1.117.131 1.675.1 1.89.125 3.78.146 5.669.068 5.6.026 11.2-.026 16.793q-.079 8.231-.22 16.465c-.078 4.583-.172 9.171-.219 13.755-.115 11.3-.094 22.619-.893 33.9-.1 1.4-.214 2.814-.339 4.218a153.1 153.1 0 0 1-2.939 19.482q-.328 1.479-.7 2.949c-.157.621-.313 1.242-.475 1.864a28.552 28.552 0 0 1-.95 3.3c-.517 1.263-1.2 2.479-1.843 3.685-.439.82-.882 1.634-1.373 2.422a9.57 9.57 0 0 1-.553.83 2.575 2.575 0 0 0-.225.261.194.194 0 0 1-.036.058.346.346 0 0 1 .109.015.463.463 0 0 0-.115-.01c-.036.031-.057.01-.02 0a.393.393 0 0 0-.074.762 61.054 61.054 0 0 0 6.745 2.151c3.675 1.038 7.381 1.989 11.087 2.912q13.821 3.445 27.766 6.379c7.293 1.54 14.653 3.159 22.071 3.989a24.84 24.84 0 0 0 2.777.2 4.366 4.366 0 0 0 1.018-.125.322.322 0 0 0 .271-.073 9.245 9.245 0 0 0 2.219-1.055 20.505 20.505 0 0 0 4.8-4.113c.178-.2.355-.413.522-.627a10.4 10.4 0 0 0 1.279-2.358c.089-.2.172-.407.261-.616a37.111 37.111 0 0 0 5.591 1.185q2.05.345 4.113.637a.4.4 0 0 0 .5-.376c.3-2.657.439-5.335.58-8.008.214-4.056.365-8.117.5-12.178q.251-7.572.423-15.144.163-6.953.292-13.911l.063-3.169q.163-8.912.287-17.827.109-7.478.193-14.955l.031-2.4q.095-7.939.172-15.879.063-6.594.12-13.192.041-4.674.073-9.354c.011-1.456.053-2.913.027-4.369v-.188a.394.394 0 0 0-.288-.366M97 21.522V10.539l4.693.267q4.056.227 8.112.459c.626.036 1.253.073 1.879.1a.4.4 0 0 0 .392-.391c0-.047.01-.094.01-.141a.268.268 0 0 1 .011-.068c0-.005 0-.005.005-.016.016-.078.026-.162.042-.24a6.105 6.105 0 0 1 .386-1.253 5.647 5.647 0 0 1 2.928-2.907c1.311-.574 3.221-.982 4.458-.011a4.284 4.284 0 0 1 1.337 2.845 8.965 8.965 0 0 1 .026 2.214c-.026.224.2.37.392.391 1.508.146 3.017.287 4.52.433q3.6.345 7.2.684c.413.042.83.079 1.242.12-.031.862-.067 1.723-.1 2.589-.037.888-.068 1.775-.1 2.663l-.188 4.928-.016.365c0 .141-.01.277-.016.418l-.125 3.21-.063 1.6c-2.045-.281-4.1-.495-6.159-.7-3.148-.329-6.3-.627-9.454-.924q-4.956-.462-9.913-.9-4.032-.36-8.06-.7l-2.568-.219c-.282-.026-.585-.073-.877-.094v-3.738m30.24 141.205c-3.774-.611-7.532-1.331-11.28-2.078-9.271-1.853-18.506-3.925-27.7-6.128-7.147-1.712-14.351-3.4-21.356-5.648-.626-.2-1.253-.413-1.869-.648a1.036 1.036 0 0 0 .073-.094 16.267 16.267 0 0 0 1.2-1.884c.845-1.483 1.628-3 2.364-4.536a33.917 33.917 0 0 0 1.989-6.766c.82-3.388 1.493-6.807 2.041-10.247.611-3.842 1.076-7.71 1.425-11.588 1.029-11.453 1.1-22.964 1.2-34.453.047-5.414.141-10.822.23-16.23q.141-8.151.224-16.3c.057-5.773.1-11.552.047-17.326-.021-2.02-.047-4.04-.136-6.055a27.845 27.845 0 0 0-.125-1.874c-.016-.167-.026-.365-.052-.558 2.14.109 4.28.229 6.415.344q7.141.392 14.277.82v4.15a.4.4 0 0 0 .392.391c1.023.084 2.041.172 3.064.261q3.806.328 7.616.663 4.9.43 9.8.882c3.21.3 6.415.6 9.62.93 2.36.24 4.719.48 7.074.793.12.016.308.042.511.073a.4.4 0 0 0 .5-.376c.068-1.728.136-3.461.2-5.189q3.085.243 6.165.507c4.552.391 9.146.731 13.657 1.493.213.036.427.078.641.12a774.394 774.394 0 0 1-.083 6.984q-.141 9.381-.413 18.767-.368 12.912-.97 25.818c-.455 9.449-1.013 18.892-1.764 28.32-.685 8.571-1.51 17.137-2.71 25.651a42.89 42.89 0 0 1-.334 1.384 53.447 53.447 0 0 1-1.879 5.914 40.41 40.41 0 0 1-3.5 7.1 22.639 22.639 0 0 1-5.418 6.113 14.379 14.379 0 0 1-7.726 2.934c-.381.026-.762.031-1.143.026a.394.394 0 0 0-.376.5 15.4 15.4 0 0 0 .819 2.547 12.328 12.328 0 0 0 2.845 4.411 7.551 7.551 0 0 0 1.232.929 56.3 56.3 0 0 1-6.781-.845m16.887-7.3c-.208.48-.428.955-.668 1.42-.094.188-.193.37-.3.553a2.425 2.425 0 0 1-.235.381 19.153 19.153 0 0 1-5.377 4.766 8.049 8.049 0 0 1-1.915.887c-3.023-.939-4.678-4.28-5.518-7.109-.037-.12-.063-.246-.1-.366a14.975 14.975 0 0 0 7.82-2.4 21.752 21.752 0 0 0 5.93-5.977 38.27 38.27 0 0 0 3.868-7.308q.532-1.308.992-2.642a99.626 99.626 0 0 1-3.278 14.486c-.36 1.107-.752 2.224-1.222 3.31m13.009-126.15c-.021 2.757-.037 5.508-.063 8.264q-.047 6.162-.1 12.319-.07 7.667-.157 15.332-.093 8.574-.214 17.153-.124 8.88-.271 17.764-.149 8.684-.34 17.373-.171 7.884-.406 15.765a844.684 844.684 0 0 1-.481 13.013c-.141 3.033-.292 6.066-.558 9.089-.032.354-.068.709-.1 1.064a144.938 144.938 0 0 1-3.664-.569 38.2 38.2 0 0 1-5.5-1.153c2.02-5.085 3.027-10.634 3.946-15.989q.579-3.384 1.054-6.787c.079-.339.147-.683.2-1.028a.158.158 0 0 1 .01-.047.388.388 0 0 0-.036-.235c.773-5.669 1.378-11.359 1.905-17.054.872-9.443 1.514-18.907 2.031-28.377q.736-13.522 1.164-27.056.345-10.593.538-21.193.093-5.293.146-10.581c.308.078.611.151.919.229 0 .9-.011 1.8-.016 2.7m7.66-8.109a662.94 662.94 0 0 1-.1 3.722q-.133 5.019-.261 10.043l-.391 14.945-.471 18.114q-.258 9.984-.522 19.972-.258 10.016-.522 20.025-.242 9.4-.49 18.8-.2 7.893-.412 15.781l-.3 11.427c-.047 1.79-.131 3.586-.141 5.376v.235c-.016.5.767.5.783 0 .031-1.242.062-2.479.1-3.722q.133-5.019.261-10.043.2-7.47.392-14.945l.469-18.114q.258-9.984.522-19.972.258-10.015.522-20.025.243-9.4.491-18.8.2-7.891.412-15.78l.3-11.427c.047-1.79.131-3.586.141-5.377v-.234a.392.392 0 0 0-.783 0"
          fill="#000001"></path>
    <path d="m113.717 11.693 4.672.845a.4.4 0 0 0 .48-.271.391.391 0 0 0-.271-.48l-4.672-.846a.4.4 0 0 0-.48.272.393.393 0 0 0 .271.48"
          fill="#000001"></path>
    <path d="M135.986 57.1a24.066 24.066 0 0 0-4.875-15.144 24.684 24.684 0 0 0-11.218-8.341 22.668 22.668 0 0 0-14.095-.4A25.888 25.888 0 0 0 87.9 53.24a23.5 23.5 0 0 0 2.657 15.587 25.643 25.643 0 0 0 10.378 9.913 24.944 24.944 0 0 0 14.538 2.8 22.3 22.3 0 0 0 13.8-7.5 27.048 27.048 0 0 0 6.353-13.322 25.389 25.389 0 0 0 .365-3.617m-.778 0a26.315 26.315 0 0 1-4.4 13.661 21.584 21.584 0 0 1-26.419 8.65 25.393 25.393 0 0 1-11.276-8.165 22.655 22.655 0 0 1-4.781-14.642 24.17 24.17 0 0 1 4.3-12.821 25.308 25.308 0 0 1 10.242-8.644 22.2 22.2 0 0 1 13.593-1.676A23.332 23.332 0 0 1 128.3 39.9a23.748 23.748 0 0 1 6.6 12.638 23.445 23.445 0 0 1 .308 4.568"
          fill="#6bc4ff"></path>
    <path d="m106.232 64.693-5.946-8.634-3.466 3.116s7.219 6.583 10.189 12.315c0 0 9.553-18.683 19.32-23.355l-3.116-2.125c-8.488 3.68-16.981 18.683-16.981 18.683M81.7 37.627c-.172-.737-.3-1.483-.412-2.235a11.8 11.8 0 0 1-.126-3.831 2.658 2.658 0 0 1 .2-.663.81.81 0 0 1 .3-.366 1.782 1.782 0 0 1 .507-.12c.3-.036.6-.057.9-.078 1.551-.089 3.112-.047 4.667 0q1.575.046 3.143.141c.5.031.5-.752 0-.783a70.573 70.573 0 0 0-7.653-.151 6.346 6.346 0 0 0-1.723.2 1.72 1.72 0 0 0-.981 1.154 9.371 9.371 0 0 0-.094 3.957 27.374 27.374 0 0 0 .517 2.975.4.4 0 0 0 .762-.2m9.574 43.379c-2.37-.12-4.761-.277-7.11-.621a12.756 12.756 0 0 1-1.764-.345.633.633 0 0 1-.339-.2 1.213 1.213 0 0 1-.225-.569 8.947 8.947 0 0 1 .366-3.7 25.825 25.825 0 0 1 .8-2.719c.167-.475-.584-.679-.752-.209a27.59 27.59 0 0 0-.715 2.386 11.514 11.514 0 0 0-.506 4.082 2.051 2.051 0 0 0 .653 1.43 3.459 3.459 0 0 0 1.529.48c1.576.282 3.184.423 4.782.548q1.644.134 3.288.22c.5.026.5-.752 0-.778M149 36.99a2.034 2.034 0 0 0-.685-1.363 3.4 3.4 0 0 0-1.539-.433c-1.587-.23-3.2-.313-4.8-.392-1.1-.052-2.2-.088-3.294-.1a.392.392 0 0 0 0 .783c2.385.036 4.787.12 7.162.381a12.375 12.375 0 0 1 1.738.277.547.547 0 0 1 .371.208 1.392 1.392 0 0 1 .229.533 8.758 8.758 0 0 1-.234 3.711 26.444 26.444 0 0 1-.7 2.746c-.152.48.6.684.752.209.25-.793.454-1.6.631-2.412A11.45 11.45 0 0 0 149 36.99m-4.693 39.944c.068.746.1 1.493.1 2.239a12.679 12.679 0 0 1-.38 3.816 2.635 2.635 0 0 1-.277.642.926.926 0 0 1-.345.361c-.021.01-.026.015-.031.015a.371.371 0 0 0-.037.011c-.031.01-.062.015-.1.026a.922.922 0 0 0-.1.01h-.2c-.3 0-.6-.015-.893-.036-1.556-.115-3.1-.371-4.636-.637q-1.566-.265-3.132-.579c-.49-.1-.7.652-.208.751a69.754 69.754 0 0 0 7.694 1.217 5.224 5.224 0 0 0 1.733.01 1.735 1.735 0 0 0 1.049-1 9.813 9.813 0 0 0 .637-3.962 25.453 25.453 0 0 0-.1-2.9c-.041-.491-.819-.5-.772 0"
          fill="#6bc4ff"></path>
    <path d="M69.43 50.823c-.272 14.663.24 79.461.282 84.718q.367-1.473.7-2.95a153.28 153.28 0 0 0 2.939-19.482q.188-2.106.339-4.217c.8-11.281.773-22.6.893-33.9.047-4.583.141-9.172.219-13.755q.133-8.229.22-16.464c.052-5.6.093-11.2.026-16.793-.021-1.89-.053-3.785-.147-5.669-.031-.559-.057-1.123-.13-1.676 0-.058-.057-.272-.073-.407 0-.011 0-.016-.005-.021a.406.406 0 0 1 .261-.694h.12c.892-.037 1.827.1 2.719.146q2.922.156 5.831.318 6.3.352 12.591.731v-7.982c-14.987-1.018-26.22-1.67-26.22-1.67s-.282 24.482-.564 39.767m65.882-35.142q-.15 3.79-.293 7.585 4.252.329 8.494.71a114.329 114.329 0 0 1 12.434 1.488l1.7.423a.4.4 0 0 1 .287.375v.188c.026 1.457-.021 2.913-.026 4.37q-.032 4.674-.074 9.354-.054 6.593-.119 13.191-.079 7.94-.173 15.88l-.031 2.4q-.094 7.478-.194 14.956-.125 8.91-.287 17.827l-.062 3.168q-.133 6.96-.293 13.912-.18 7.572-.422 15.143a650.114 650.114 0 0 1-.5 12.179c-.141 2.673-.281 5.351-.578 8.008a.4.4 0 0 1-.5.375q-2.058-.29-4.113-.636a37.113 37.113 0 0 1-5.591-1.186c-.088.2-.172.412-.261.617a10.352 10.352 0 0 1-1.274 2.354c-.172.209-.344.417-.522.626l21.491 3.654c.852-13.729 4.245-142.963 4.245-142.963-5.366-1.29-18.422-2.7-33.336-4m30.115 11.1q-.148 5.717-.3 11.427-.2 7.893-.413 15.78-.243 9.4-.491 18.8-.258 10.015-.522 20.025-.258 9.983-.522 19.972l-.469 18.114q-.2 7.47-.392 14.945-.133 5.019-.261 10.043c-.032 1.243-.063 2.48-.1 3.722a.392.392 0 0 1-.783 0c0-.079.006-.156.006-.235.011-1.79.094-3.586.141-5.376q.149-5.717.3-11.427.2-7.893.412-15.781l.491-18.8q.26-10.016.522-20.025l.522-19.972.47-18.114q.2-7.47.392-14.945.133-5.019.261-10.043c.031-1.243.062-2.48.1-3.722a.392.392 0 0 1 .783 0c0 .078-.005.156-.005.234-.011 1.8-.094 3.587-.141 5.377"
          fill="#3859ff"></path>
    <path d="M133.387 12.909q-3.6-.344-7.2-.684c-1.509-.146-3.018-.287-4.521-.433-.188-.015-.417-.167-.391-.391a9.063 9.063 0 0 0-.026-2.214 4.289 4.289 0 0 0-1.337-2.845c-1.237-.971-3.147-.563-4.458.011a5.629 5.629 0 0 0-2.928 2.907 6.124 6.124 0 0 0-.386 1.253c-.016.079-.027.162-.042.24v.016c-.006.021-.006.047-.011.068a1.114 1.114 0 0 0-.01.141.4.4 0 0 1-.392.391c-.626-.036-1.253-.073-1.879-.1q-4.058-.226-8.112-.459l-4.693-.267V25.25c.292.021.59.068.877.094l2.568.219q4.034.345 8.06.705 4.956.438 9.913.9 4.73.439 9.453.924c2.058.214 4.114.428 6.161.705l.062-1.6q.061-1.607.125-3.211c0-.141.011-.276.016-.417 0-.12.01-.241.016-.366q.093-2.466.188-4.928c.036-.887.067-1.774.1-2.662.031-.861.068-1.723.1-2.589-.418-.031-.83-.068-1.247-.11m-14.517-.647a.4.4 0 0 1-.481.271l-4.672-.845a.393.393 0 0 1-.271-.48.4.4 0 0 1 .48-.272l4.672.846a.4.4 0 0 1 .272.48"
          fill="#5194ff"></path>
    <path d="m51.733 179.77 47.843 13.165s10.9-7.078 14.439-10.476c0 0 1.273-14.3.423-17.128s-20.385-5.945-20.385-5.945a7.08 7.08 0 0 0 .71-5.664s13.447-31.284 7.783-35.81c-4.056-3.247-12.9-5.111-19-5.074 0 .016.016.026.016.037.114.506-.371.97-.71 1.273a11.254 11.254 0 0 1-1.07.83c.522.095.892.382.662 1.055a2.578 2.578 0 0 1-1.138 1.164 12.439 12.439 0 0 1-2.046 1.013 13.509 13.509 0 0 1-2 .652 2.141 2.141 0 0 1-.956.042 19.17 19.17 0 0 1-1.023 1.461 6.016 6.016 0 0 1-1.023 1.04c-.856 5.861-.125 15.555 4.087 31.185 0 0-3.257 1.555-.991 4.813 0 0-6.938-2.266-8.775-1.7-1.546.475-11.8 4.353-15.447 6.838l-1.273 1.289a31.991 31.991 0 0 0-.121 15.937m47.906 11.9c-.032.5-.815.5-.783 0a82.858 82.858 0 0 0-.382-14.882c-.057-.5.726-.491.783 0a82.87 82.87 0 0 1 .382 14.882M78.9 120.125a27.542 27.542 0 0 0 4.276 1.436 28.13 28.13 0 0 0 15.7-.648c.481-.161.679.6.209.753a27.6 27.6 0 0 1-4.531 1.121 29.009 29.009 0 0 1-16.041-1.987c-.46-.2-.063-.867.391-.674m12.2 33.164c.005.532-.637.558-1.018.611-3.55.517-7.434.923-10.68-.946a.389.389 0 0 1 .391-.673 10.632 10.632 0 0 0 5.225 1.274 23 23 0 0 0 2.814-.146c.444-.047.888-.1 1.326-.162.235-.031.475-.068.71-.1l.308-.047a.456.456 0 0 1 .031-.073.488.488 0 0 1 .893.261m-12.393 5.2a14.6 14.6 0 0 0 12.278.553c.465-.193.668.564.209.752a15.355 15.355 0 0 1-12.878-.631c-.449-.235-.052-.909.391-.674m-24.054 6.149q6.162 2.3 12.466 4.187a203.044 203.044 0 0 0 22.677 5.412c1.91.339 3.826.705 5.752.935a6.772 6.772 0 0 0 2.746-.126 9.232 9.232 0 0 0 2.412-1.279c3.341-2.254 6.666-4.541 10-6.812.418-.282.81.391.392.673q-2.883 1.966-5.763 3.926c-.924.631-1.848 1.258-2.777 1.889-.893.606-1.77 1.259-2.72 1.776a6.383 6.383 0 0 1-2.605.8 13.039 13.039 0 0 1-2.876-.235q-2.882-.447-5.747-.972-5.794-1.064-11.521-2.468a204.433 204.433 0 0 1-22.64-6.959c-.464-.167-.261-.919.209-.747"
          fill="#ff8684"></path>
    <path d="M51.88 163.776a.661.661 0 0 1-.021.063c.412-.418.84-.846 1.273-1.29a3.216 3.216 0 0 0-1.252 1.227"
          fill="#ff8684"></path>
    <path d="M63.338 132.189c.616-.2 1.227-.423 1.848-.684l-.286-11.416s5.465 4.432 9.36 1.326a6.016 6.016 0 0 0 1.023-1.04c.4-.522.741-1.007 1.023-1.461.073-.115.141-.229.209-.345s.146-.261.214-.385c.945-1.775.986-3.018.631-3.858a2.536 2.536 0 0 0-1.607-1.4 3.578 3.578 0 0 0-2.224.145c-.188.058-.376.121-.569.173a8.66 8.66 0 0 1-.538.141 5.211 5.211 0 0 1-.517.084c.12.067.235.14.35.214.011 0 .016.01.026.015.1.068.193.141.287.219a3.7 3.7 0 0 1 .293.272 3.8 3.8 0 0 1 .673.9.4.4 0 0 1-.021.418.382.382 0 0 1-.12.12.333.333 0 0 1-.235.041.392.392 0 0 1-.3-.182 3.015 3.015 0 0 0-.209-.345c-.016-.026-.037-.052-.052-.073a.225.225 0 0 1-.027-.036c-.036-.042-.067-.089-.1-.131a3.311 3.311 0 0 0-.266-.277c-.047-.041-.089-.083-.136-.12-.021-.021-.047-.036-.073-.057l-.016-.016v-.005c-.083-.063-.172-.12-.261-.177a6.016 6.016 0 0 1 1.049 2.636.4.4 0 0 1-.271.48.393.393 0 0 1-.48-.271 5.472 5.472 0 0 0-2.114-3.639.4.4 0 0 1-.141-.532.417.417 0 0 1 .224-.173 5.5 5.5 0 0 1-1.013-1.524 24.219 24.219 0 0 0-6.608-10.873c-.621-3.555-3.273-5.335-6.165-6.212-.094-.026-.188-.058-.282-.084-.141-.042-.287-.078-.428-.115a.372.372 0 0 0-.037-.01c-.13-.032-.261-.068-.4-.094a24.769 24.769 0 0 0-5.664-.512c-.909.016-1.551.063-1.749.063-.82 0-.047 2.474.308 3.513-10.169 1.911-14.663 10.237-16.256 12.246-1.529 1.932 2.365 9.83 5.769 12.231.078.052.151.105.224.157l.152.089a3.67 3.67 0 0 0 .417.214c.026-.073.058-.141.084-.214s.052-.141.078-.209c.016-.042.031-.084.047-.12.005-.011.005-.016.01-.026a96.246 96.246 0 0 0 3.007-9.694l-1.3 3.894s-1.414-3.492-.281-4.625a3.178 3.178 0 0 1 2.009-1.034q.651-2.78 1.138-5.59c.084-.5.835-.282.752.208q-.431 2.5-.987 4.97a96.172 96.172 0 0 1-3.659 12.252c-.047.12-.089.245-.136.365l-.015.047.1.016h.042l-.011.021-.2.359-.235.408a91.94 91.94 0 0 1-1.425 3.487.327.327 0 0 1-.2.188c.2.157.512.386.893.657.292.21.631.439 1.023.69.1.068.214.141.329.209s.214.135.329.209a36.65 36.65 0 0 0 5.81 2.928c.558.219 1.143.433 1.743.632a25.6 25.6 0 0 0 16.141.318m.235-18.14a10.415 10.415 0 0 0 1.033 4.317c.22.449-.454.846-.673.392a11.347 11.347 0 0 1-1.143-4.709.392.392 0 0 1 .783 0M49.332 96.677a.418.418 0 0 1 .481-.376c.412.062.824.141 1.231.229a23.451 23.451 0 0 1 7.856 3.258c.423.271.026.95-.392.673a22.926 22.926 0 0 0-8.908-3.409.308.308 0 0 1-.272-.375m64.494 87.003-4.9 3.6-7.751 5.7-1.658 1.22c-.485-.167-.986-.3-1.477-.449-1.232-.365-2.469-.731-3.7-1.091-1.749-.512-3.5-1.018-5.246-1.53q-3.141-.907-6.28-1.821l-6.771-1.958q-3.414-.987-6.822-1.968-3.163-.917-6.332-1.827l-5.33-1.535c-1.274-.365-2.547-.736-3.826-1.1-.6-.172-1.2-.365-1.812-.522-.026 0-.052-.016-.078-.021a.39.39 0 0 0-.209.752l2.292.657q2.983.863 5.966 1.718 4.174 1.206 8.353 2.407 4.682 1.345 9.359 2.7 4.542 1.316 9.078 2.626c2.495.726 4.985 1.446 7.48 2.177 1.525.444 3.044.887 4.563 1.347.277.083.778.339 1.054.193a3.44 3.44 0 0 0 .408-.3c.323-.241.652-.481.976-.721q3.475-2.553 6.948-5.111 2.9-2.13 5.789-4.259c.1-.074.2-.152.307-.225.413-.277.022-.955-.38-.658"
          fill="#6bc4ff"></path>
    <path d="M63.338 132.189a25.516 25.516 0 0 1-16.138-.329 30.3 30.3 0 0 1-1.743-.632 36.565 36.565 0 0 1-5.81-2.928c-.115-.073-.225-.141-.329-.209s-.225-.141-.329-.208a39.773 39.773 0 0 1-1.023-.689 41.328 41.328 0 0 0-.366 2.6c-.021.178-.041.35-.057.528l-.047.49a63.86 63.86 0 0 0-.047 11.735c.71 6.651-1.556 19.957-1.556 19.957a4.873 4.873 0 0 0 .387.543c.094-.147.182-.3.281-.439l2.485 2.067c.256.063.517.109.773.146a7.8 7.8 0 0 1 2.224-2.051c.13-.078.214-.125.214-.125a17.333 17.333 0 0 1 1.42 1.941 6.375 6.375 0 0 1 1.2 3.33 14.072 14.072 0 0 0 1.478 1.379s2.375-2.312 5.5-5.46a.259.259 0 0 1 .021-.063 3.254 3.254 0 0 1 1.258-1.227c4.719-4.787 10.544-10.9 12.758-14.057 2.625-3.764-.3-11.522-2.558-16.3M44.357 159.25l3.059-23.8c3.305 4.584 9.36 8.149 9.276 8.942-.109.945-8.195 10.185-12.335 14.862"
          fill="#322cff"></path>
    <path d="M34.773 128.906a2.416 2.416 0 0 0 .648 1.681 1.788 1.788 0 0 0 1.665.38 2.518 2.518 0 0 0 .4-.156l.047-.491c.016-.162.036-.355.057-.527a3.151 3.151 0 0 1-.439.308 1.429 1.429 0 0 1-.433.152 1.255 1.255 0 0 1-.584-.11 1.31 1.31 0 0 1-.575-1.1 6.766 6.766 0 0 1 .381-2.689c.12-.355-.407-.689-.652-.381a11.094 11.094 0 0 1-1.023 1.123 2.87 2.87 0 0 1-.768.579c-.005 0-.062.02-.094.031 0-.026-.026-.083-.026-.094a3.908 3.908 0 0 1 .956-2.792 9.737 9.737 0 0 1 2.338-2.073 12.6 12.6 0 0 1 1.389-.8c.042.015.078.032.12.047a97.484 97.484 0 0 1-1.6 3.967.425.425 0 0 0 .475.58.317.317 0 0 0 .2-.188q.744-1.731 1.425-3.487c.057-.151.12-.3.177-.459a.3.3 0 0 1 .052.047l.2-.361.01-.021c-.015 0-.026-.005-.041-.005a.657.657 0 0 1-.1-.015l.015-.048c.047-.119.089-.245.136-.365a96 96 0 0 0 3.659-12.252c.376-1.649.7-3.3.987-4.969.083-.491-.668-.705-.752-.209q-.486 2.811-1.138 5.591c-.136.589-.282 1.18-.428 1.77a95.427 95.427 0 0 1-3.007 9.693l-.01.027c-.016.041-.031.083-.047.12l-.078.208c-.026.067-.058.141-.084.214a4.479 4.479 0 0 1-.418-.214c-.052-.031-.1-.057-.151-.088a3.385 3.385 0 0 1-.224-.157 11.092 11.092 0 0 0-3.811 3.09 5.319 5.319 0 0 0-.867 1.67 3.412 3.412 0 0 0-.135 1.681.787.787 0 0 0 .772.674 1.775 1.775 0 0 0 .987-.47c.156-.12.3-.251.449-.386a8.02 8.02 0 0 0-.058 1.274m-1.4-1.2c-.016 0-.057-.026 0 0h.011l.01.006a.046.046 0 0 0-.021-.006m29.044-39.731a18.131 18.131 0 0 0-4-8.7 7.453 7.453 0 0 0-5.627-2.49.39.39 0 0 0-.329.193c-.95-.543-3.847-1.994-6.478-1.243-3.2.914.653 4.124.653 4.124s-3.4.721-4.187 2.094 3.012 1.962 3.012 1.962-3.727 2.224-2.093 3.012a7.5 7.5 0 0 0 3.534.59s-1.243 3.336.652 4.056c1.264.48.9 1.248 1.822 1.749a24.4 24.4 0 0 1 5.664.512l.4.093a.194.194 0 0 0 .036.011c.141.036.287.073.428.115.094.026.188.057.282.083a9.59 9.59 0 0 0 2.574-.992 9.262 9.262 0 0 0 2.646-2.182 4.961 4.961 0 0 0 1.06-1.686 2.8 2.8 0 0 0-.047-1.3m-1.107 1.8a8.4 8.4 0 0 1-2.37 2.334 9.043 9.043 0 0 1-2.135 1.018l-.282.094a1.663 1.663 0 0 0 .053-.564 3.053 3.053 0 0 0-.246-.961A1.357 1.357 0 0 0 56.17 90a3.412 3.412 0 0 0-1.085-.924 2.521 2.521 0 0 0-.715-.084 3.065 3.065 0 0 1-.684-.167 2.1 2.1 0 0 1-.862-.569 1.213 1.213 0 0 1-.261-1.347 1.3 1.3 0 0 1 1.807-.37.355.355 0 0 0 .281.042h.021c.011 0 .016-.006.021-.006 1.843-.344.888-3.069.35-4.265a4.982 4.982 0 0 0-.245-3.424 4.014 4.014 0 0 0-.334-.595 5.341 5.341 0 0 0-.507-.637 6.656 6.656 0 0 1 3.545 1.8 12.89 12.89 0 0 1 2.761 4.2 21.548 21.548 0 0 1 .8 2.161.408.408 0 0 0-.152.136c-.01.015-.026.031-.036.047.01-.016.015-.021.021-.032-.006.006-.011.016-.016.021-.021.021-.037.047-.057.068-.053.063-.115.12-.173.178-.036.036-.078.067-.114.1a.239.239 0 0 1-.058.047 2.444 2.444 0 0 1-.292.183c-.027.01-.053.026-.079.036a.052.052 0 0 0-.015.011l-.183.063a1.102 1.102 0 0 1-.193.041.061.061 0 0 0-.032.006.618.618 0 0 1-.1 0h-.234c-.011 0-.021-.006-.032-.006a.926.926 0 0 1-.125-.026.39.39 0 0 0-.209.752 2.273 2.273 0 0 0 1.577-.193 2.733 2.733 0 0 0 .751-.585q.134.5.251 1c.052.23.1.46.151.689a1.782 1.782 0 0 1-.4 1.425"
          fill="#000001"></path>
    <path d="M57.4 80.745a3.412 3.412 0 0 0-1.164 1.811.426.426 0 0 1-.026.073.337.337 0 0 0 .12.313.351.351 0 0 0 .6-.208 2.62 2.62 0 0 1 .914-1.415c.365-.292-.078-.872-.444-.574m2.148 2.605a.522.522 0 1 0-.522.522.523.523 0 0 0 .522-.522m1.336 2.604c.026-.031.042-.057 0 0M78.513 120.8a28.925 28.925 0 0 0 16.041 1.989 28.223 28.223 0 0 0 4.531-1.123c.475-.161.272-.913-.209-.751a28.085 28.085 0 0 1-15.7.647 27.433 27.433 0 0 1-4.276-1.435c-.454-.2-.851.469-.391.673m11.713 32.233a.463.463 0 0 0-.032.073l-.308.047c-.235.037-.475.068-.71.1-.443.058-.882.115-1.326.162a24.04 24.04 0 0 1-2.813.146 10.713 10.713 0 0 1-5.226-1.273.389.389 0 0 0-.391.673c3.242 1.868 7.131 1.462 10.68.945.381-.058 1.023-.078 1.018-.611a.486.486 0 0 0-.892-.261m-11.897 6.128a15.357 15.357 0 0 0 12.878.631c.459-.188.256-.945-.209-.751a14.6 14.6 0 0 1-12.278-.554c-.443-.235-.84.439-.391.674m20.155 17.623a82.962 82.962 0 0 1 .381 14.882c-.032.5.746.5.783 0a82.95 82.95 0 0 0-.381-14.882c-.063-.5-.841-.5-.783 0m12.231-9.83c-3.331 2.271-6.656 4.557-10 6.812a9.2 9.2 0 0 1-2.412 1.279 6.668 6.668 0 0 1-2.746.126c-1.926-.23-3.847-.6-5.752-.935a203.794 203.794 0 0 1-22.676-5.413q-6.3-1.894-12.466-4.187c-.47-.177-.673.58-.209.752a203.824 203.824 0 0 0 22.64 6.958q5.724 1.4 11.521 2.47 2.865.523 5.747.971a13 13 0 0 0 2.876.234 6.287 6.287 0 0 0 2.605-.8c.95-.517 1.827-1.17 2.72-1.775.924-.632 1.848-1.258 2.777-1.89q2.882-1.965 5.763-3.925c.412-.282.026-.961-.391-.679M51.044 96.53a25.217 25.217 0 0 0-1.232-.229.42.42 0 0 0-.48.376.311.311 0 0 0 .272.375 22.952 22.952 0 0 1 8.905 3.409c.423.277.814-.4.392-.673a23.346 23.346 0 0 0-7.857-3.258m32.522 16.35a.271.271 0 0 0-.016-.037c-.2-.689-1.289-.657-1.837-.579a.705.705 0 0 0-.12.026.974.974 0 0 0 .041-.747c-.224-.658-1.054-.84-1.665-.83a6.8 6.8 0 0 0-2.119.454c-.016.006-.032.011-.042.016-.021-.574-.794-.845-1.342-.913-1.545-.2-2.772 1.2-3.565 2.344-.172.245-.329.5-.48.767.182-.042.36-.089.537-.141.194-.057.382-.115.569-.173a8.963 8.963 0 0 1 .752-.939 3.418 3.418 0 0 1 1.415-1.018 1.662 1.662 0 0 1 .877-.036 1.235 1.235 0 0 1 .407.13.514.514 0 0 0 .047.026h-.005a.9.9 0 0 1-.079.121 2 2 0 0 1-.188.182 1.775 1.775 0 0 1-.25.194.389.389 0 0 0 .391.673 9.4 9.4 0 0 1 2.433-.841 1.92 1.92 0 0 1 1.483.131c.114.088.114.146.067.251a1.567 1.567 0 0 1-.4.49 4.769 4.769 0 0 1-.861.616.363.363 0 0 0-.167.225.39.39 0 0 0 .564.449 5.328 5.328 0 0 1 1.321-.585 2.913 2.913 0 0 1 1.158-.125 2.544 2.544 0 0 1 .277.078 1.059 1.059 0 0 1-.1.14 4.051 4.051 0 0 1-.506.492 11.3 11.3 0 0 1-1.269.9c-.266.173-.532.34-.809.5a.394.394 0 0 0 .3.715 4.007 4.007 0 0 1 .83-.136 1.572 1.572 0 0 1 .506.042c-.01.036-.031.094-.031.1a2.8 2.8 0 0 1-1.081.871 12.69 12.69 0 0 1-1.822.851 13.118 13.118 0 0 1-1.764.554c-.1.021-.2.042-.292.057-.068.125-.141.256-.214.386s-.136.23-.209.345a2.122 2.122 0 0 0 .955-.042 13.564 13.564 0 0 0 2-.653 12.316 12.316 0 0 0 2.046-1.012 2.564 2.564 0 0 0 1.138-1.164c.23-.673-.141-.96-.663-1.054a10.24 10.24 0 0 0 1.07-.831c.334-.3.82-.762.7-1.273m-1.833 2.866c.063.01.016.021 0 0m-18.148-1.694a.392.392 0 0 0-.783 0 11.14 11.14 0 0 0 1.143 4.709c.219.454.892.057.673-.392a10.415 10.415 0 0 1-1.033-4.317m9.281.131c-.094-.1-.188-.183-.292-.272s-.188-.152-.287-.219a.226.226 0 0 1-.026-.016 3.644 3.644 0 0 0-.35-.214 4.018 4.018 0 0 0-1.039-.4.431.431 0 0 0-.219.015c-.12-.1-.24-.2-.366-.3a.323.323 0 0 0-.308-.032.417.417 0 0 0-.224.173.4.4 0 0 0 .141.532 5.488 5.488 0 0 1 2.116 3.64.391.391 0 0 0 .48.272.4.4 0 0 0 .272-.48 6.105 6.105 0 0 0-1.049-2.637c.088.057.177.115.261.178l.015.016.073.057c.047.042.094.079.136.12a3.46 3.46 0 0 1 .266.276 1.2 1.2 0 0 1 .105.131.2.2 0 0 0 .026.037c.016.026.036.046.052.073a3.091 3.091 0 0 1 .209.344.415.415 0 0 0 .532.142.374.374 0 0 0 .12-.121.4.4 0 0 0 .021-.418 3.857 3.857 0 0 0-.668-.9M38.563 169.43a5.766 5.766 0 0 1-.094-4.083c.026-.062.444-.783.6-.647a.2.2 0 0 0-.026-.021c-.261-.214-2.485-2.067-2.485-2.067-.1.141-.193.292-.281.438-1.88 3.033-1.958 7.272-1.452 7.878.533.637 4.563 1.132 4.563 1.132a13.879 13.879 0 0 1-.825-2.63"
          fill="#000001"></path>
    <path d="M49.327 174.911a5.739 5.739 0 0 0-3.117-.564s-2.077-3.868-1.414-5.946a1.8 1.8 0 0 0 .078-.485 6.382 6.382 0 0 0-1.206-3.331 17.9 17.9 0 0 0-1.42-1.942s-.083.047-.214.126a7.731 7.731 0 0 0-2.223 2.051 4.565 4.565 0 0 0-.862 3.3c.47 3.493 5 10 7.643 9.344s3.868-1.795 2.735-2.552"
          fill="#000001"></path>
</svg>