<svg xmlns="http://www.w3.org/2000/svg" viewBox="0 0 200 200">
    <defs></defs>
    <path d="M90.455 166.906a4.963 4.963 0 0 0 3.165-3.715 7.81 7.81 0 0 0 .051-1.367l-.113.052-1.5.726c-2.819 1.365-5.641 2.725-8.443 4.126a7.826 7.826 0 0 0 1.49.5 9.387 9.387 0 0 0 5.35-.322zm2.194-31.265c.377 1.471.735 2.947 1.054 4.431.522 2.43.961 4.882 1.3 7.346a14.228 14.228 0 0 1 1.056-1.455 67.58 67.58 0 0 1-.034-4.911 25.323 25.323 0 0 1 .861-5.754c.193-.726.42-1.45.671-2.166l-.93.475c-1.327.678-2.653 1.352-3.978 2.034z"
          fill="#ffd2d2"></path>
    <path d="M96.061 145.963a14.228 14.228 0 0 0-1.056 1.455c.042.307.092.612.131.919a13.157 13.157 0 0 1 .965-1.5q-.023-.437-.04-.874zm-2.39 15.861a7.81 7.81 0 0 1-.051 1.367 4.963 4.963 0 0 1-3.165 3.715 9.387 9.387 0 0 1-5.348.318 7.826 7.826 0 0 1-1.49-.5l-.681.343a9.7 9.7 0 0 0 4.744.96 7.437 7.437 0 0 0 4.843-1.732 5.634 5.634 0 0 0 1.517-2.336 6.788 6.788 0 0 0 .182-2.417 6.045 6.045 0 0 1-.551.282z"
          fill="#000001"></path>
    <path d="M96.845 138.278a35.663 35.663 0 0 0-.253 6.325 67.831 67.831 0 0 0 1.829 14.23 44.38 44.38 0 0 0 1.5 5.282 10.066 10.066 0 0 0 1.8 3.095 6.842 6.842 0 0 0 1.739 1.449 7.683 7.683 0 0 0 2.516.82 9.985 9.985 0 0 0 4.8-.21 5.422 5.422 0 0 0 3.053-2.333 5.962 5.962 0 0 0 .582-4.084c-.376-2.09-.849-4.162-1.253-6.246-.4-2.045-.738-4.1-.994-6.168-.252-2.032-.742-4.477.453-6.313a7.194 7.194 0 0 1 2.189-2.008 30.5 30.5 0 0 1 2.891-1.643c3.86-1.956 8.066-3.342 11.561-5.957 2.936-2.2 5.657-5.525 5.631-9.381a13.9 13.9 0 0 0-1.562-5.646c-.594-1.274-1.277-2.5-1.972-3.722-.378.21-.755.423-1.133.632-3.021 1.671-6.071 3.3-9.211 4.734-.534.245-1.057.516-1.577.793-.355.466-.709.932-1.07 1.394-1.314 1.679-2.7 3.3-4.019 4.976l-.061.078-.006.008-.019.023c-.112.147-.223.294-.348.431a1.924 1.924 0 0 1-.887.608 1.139 1.139 0 0 1-1.265-.745 2.716 2.716 0 0 1-.3-1.288 7.58 7.58 0 0 0-.038-.768v-.181c-.247.439-.484.884-.736 1.317a5.69 5.69 0 0 1-1.611 1.971 1.676 1.676 0 0 1-2.178-.178 1.531 1.531 0 0 1-.39-1.008l-1.033.527c-.554.765-1.34 1.725-2.353 1.228-.01 0-.015-.011-.025-.016q-2.394 1.219-4.786 2.441a27.431 27.431 0 0 0-1.464 5.533zm3.173-.17c.13-.347.689-.2.559.154a6.859 6.859 0 0 0-.429 2.71c.016.374-.564.372-.58 0a7.3 7.3 0 0 1 .45-2.864z"
          fill="#ffd2d2"></path>
    <path d="M131.356 115.768c.695 1.221 1.378 2.448 1.972 3.722a13.9 13.9 0 0 1 1.562 5.646c.026 3.856-2.695 7.183-5.631 9.381-3.495 2.615-7.7 4-11.561 5.957a30.5 30.5 0 0 0-2.891 1.643 7.194 7.194 0 0 0-2.189 2.008c-1.195 1.836-.7 4.281-.453 6.313.256 2.068.6 4.123.994 6.168.4 2.084.877 4.156 1.253 6.246a5.962 5.962 0 0 1-.582 4.084 5.419 5.419 0 0 1-3.053 2.333 9.985 9.985 0 0 1-4.8.21 7.683 7.683 0 0 1-2.516-.82 6.842 6.842 0 0 1-1.739-1.449 10.066 10.066 0 0 1-1.8-3.095 44.38 44.38 0 0 1-1.5-5.282 67.831 67.831 0 0 1-1.829-14.23 35.663 35.663 0 0 1 .253-6.325 27.431 27.431 0 0 1 1.474-5.533l-.76.387c-.251.716-.478 1.44-.671 2.166a25.323 25.323 0 0 0-.861 5.754 67.58 67.58 0 0 0 .034 4.911q.018.435.04.87a68.787 68.787 0 0 0 1.04 8.739 67.753 67.753 0 0 0 1.721 7.14 15.623 15.623 0 0 0 1.275 3.237 8.352 8.352 0 0 0 2.994 3.19 7.83 7.83 0 0 0 2.5.864 12.744 12.744 0 0 0 2.671.243 8.059 8.059 0 0 0 4.276-1.2 5.545 5.545 0 0 0 2.31-3.149 11.017 11.017 0 0 0-.31-5.175c-.414-2.044-.847-4.084-1.209-6.138a62.413 62.413 0 0 1-.9-6.726 5.7 5.7 0 0 1 .536-3.267 6.612 6.612 0 0 1 2.313-2.119c3.892-2.461 8.356-3.809 12.3-6.168 3.264-1.951 6.358-4.825 7.456-8.577a9.717 9.717 0 0 0-.112-5.609 28.874 28.874 0 0 0-2.562-5.672c-.18-.322-.364-.641-.547-.962z"
          fill="#000001"></path>
    <path d="M92.917 109.044q-1.167-2.852-2.068-5.8a.3.3 0 0 0-.157-.176c.107.354.2.711.316 1.064a.3.3 0 0 1 .009.084c.093.241.18.484.278.723a.291.291 0 0 1-.075.282c-.079.1-.163.194-.244.291q.647 1.9 1.407 3.749z"
          fill="#66c1fc"></path>
    <path d="M125.386 90.4a14.579 14.579 0 0 0-1.658-2.534 44.736 44.736 0 0 0-5.577-5.562c-.116.15-.233.3-.353.446q-.588.72-1.232 1.4a14.248 14.248 0 0 1-1.352 1.351 15.841 15.841 0 0 1-4.647 2.383 13.737 13.737 0 0 1-5.77.894 7.969 7.969 0 0 1-4.877-2.3 10.171 10.171 0 0 1-2.637-4.611 10.511 10.511 0 0 1-.236-1.2 37.024 37.024 0 0 1-2.567 1.984 7.912 7.912 0 0 1-2.927 1.362 4.081 4.081 0 0 1-2.024-.032 3.875 3.875 0 0 1-1.651-1.137c-.317-.34-.627-.687-.936-1.035l-.417-.47a37.142 37.142 0 0 0-2.045 4.475q-.7 1.753-1.294 3.547c-.394 1.181-.721 2.385-1.157 3.552a8.467 8.467 0 0 1-2.766 4.032c-.01.007-.014.016-.022.023a.291.291 0 0 1 .324.056 20.362 20.362 0 0 0 4.84 3.939A18.764 18.764 0 0 0 90.066 103l-.023-.076a80.97 80.97 0 0 1-1.3-4.831c-.085-.363.474-.517.559-.154.4 1.727.878 3.436 1.393 5.133a.3.3 0 0 1 .157.176q.9 2.948 2.068 5.8l1.063-.424q7.125-2.825 14.266-5.611l4.575-1.8a18.414 18.414 0 0 0-.352-3.311v-.032a.229.229 0 0 1 .132-.3 111.162 111.162 0 0 1 13.176-4.88l.213-.068a.29.29 0 0 1 .327.133c.2.479.392.964.573 1.451a21.307 21.307 0 0 0-1.507-3.806z"
          fill="#66c1fc"></path>
    <path d="M131.387 115.089q2.253-1.261 4.494-2.541c1.3-.736 2.668-1.406 3.889-2.266a3.63 3.63 0 0 0 1.335-1.406 2.676 2.676 0 0 0-.008-1.538c-.238-1.166-.681-2.272-.983-3.42q-.323-1.239-.72-2.455a32.427 32.427 0 0 0-1.846-4.6 4.749 4.749 0 0 0-2.639-2.691 5.785 5.785 0 0 0-3.22.452c-.877.285-1.749.589-2.619.9-.521.184-1.04.373-1.561.561a27.129 27.129 0 0 1 1.013 5.632 14.725 14.725 0 0 1-.358 4.838 32.323 32.323 0 0 1-4.07 8.689c-1.2 1.943-2.515 3.818-3.88 5.652.67-.335 1.351-.646 2.026-.971 3.108-1.501 6.139-3.152 9.147-4.836zm-24.673 12.229c-.173.257-.352.51-.528.765l.4-.2c.037-.191.079-.383.128-.565zm-14.256-17.474c-2.954 1.176-5.91 2.354-8.843 3.584.279.454.563.906.833 1.365a62.016 62.016 0 0 1 5.069 10.542q.3.834.58 1.672c.9 2.658 1.7 5.352 2.4 8.067q2.5-1.293 5.017-2.572l5.106-2.6a3.015 3.015 0 0 1-.176-2.465 38.235 38.235 0 0 0 .769-3.851 13.5 13.5 0 0 0-.729-7.191 8.937 8.937 0 0 0-.79-1.439 6.9 6.9 0 0 1-.843-1.263.9.9 0 0 1 .194-1.1 1.58 1.58 0 0 1 1.342-.048c1.8.5 2.928 2.213 3.79 3.781a15.544 15.544 0 0 0 2.723-2.856 20.27 20.27 0 0 0 3.92-11.638q-3.2 1.262-6.405 2.515-6.98 2.739-13.957 5.497z"
          fill="#3859ff"></path>
    <path d="M52.032 142.491a.235.235 0 0 0-.034-.142.24.24 0 0 0-.3-.156h-.006a.279.279 0 0 0-.2.128c-1.208 1.812-2.607 3.688-3.15 5.834a3.613 3.613 0 0 0 .279 2.746 2.033 2.033 0 0 0 2.254 1.042c1.368-.442 1.606-2.257 1.676-3.466a26.623 26.623 0 0 0-.519-5.986z"
          fill="#6bc4ff"></path>
    <path d="M119.186 177.75c-1.318-2.44-3.975-3.874-6.593-4.493a22.873 22.873 0 0 0-8.535-.047 17.02 17.02 0 0 0-6.444 2.1 7.355 7.355 0 0 0-2.494 2.46.293.293 0 0 0 .111.4.3.3 0 0 0 .139.038h7.957l6.817-.006h7.828c.3 0 .618.023.922 0h.042a.293.293 0 0 0 .25-.436z"
          fill="#000001"></path>
    <path d="M161.018 22.932q-1.828 3.6-3.627 7.222-2.256 4.512-4.517 9.025-2.335 4.653-4.7 9.291a431.657 431.657 0 0 1-4.124 7.9c-.9 1.68-1.8 3.384-2.842 4.981l-.008.012q-4.16-4.623-8.179-9.373-1.175-1.389-2.336-2.789c-.238-.287-.646.125-.409.41q4.086 4.923 8.326 9.715 1.206 1.362 2.424 2.713a.248.248 0 0 0 .349.034l.036-.026.01-.01a.289.289 0 0 0 .059-.057 46.233 46.233 0 0 0 2.633-4.509 352.321 352.321 0 0 0 4-7.628q2.358-4.592 4.671-9.209 2.3-4.566 4.577-9.139 1.882-3.768 3.776-7.53l.377-.744c.173-.328-.327-.621-.496-.289z"
          fill="#6bc4ff"></path>
    <path d="M102.031 41.3A37.381 37.381 0 0 1 112.9 25.481a51.4 51.4 0 0 1 16.9-9.749 43.769 43.769 0 0 1 11.69-2.588 31.054 31.054 0 0 1 8.1.632 41.716 41.716 0 0 1 16.3 6.718 36.461 36.461 0 0 1 7.267 7.594 57.722 57.722 0 0 1 5.759 9.157 47.558 47.558 0 0 1 5.027 18 42.952 42.952 0 0 1-2.011 16.3 38.356 38.356 0 0 1-7.1 12.859 30.978 30.978 0 0 1-11.415 8.409c-5.854 2.532-12.287 3.463-18.583 4.127-1.9.2-3.794.37-5.694.528-.369.031-.372.611 0 .58 6.923-.576 13.994-1.193 20.655-3.283a33.1 33.1 0 0 0 13.243-7.6 37.005 37.005 0 0 0 8.16-12.045 42.872 42.872 0 0 0 3.417-15.884 46.427 46.427 0 0 0-3.29-18.022 57.579 57.579 0 0 0-11.818-18.347c-4.242-4.466-10.242-7.124-16.083-8.77a43.888 43.888 0 0 0-7.445-1.466 33.145 33.145 0 0 0-11.2 1A54.127 54.127 0 0 0 116.1 22.2a40.935 40.935 0 0 0-12.817 14.617 34.473 34.473 0 0 0-1.81 4.332c-.122.351.438.503.558.151z"
          fill="#6bc4ff"></path>
    <path d="m186.782 64.556 6.963.735.978.1c.371.039.368-.541 0-.58l-6.963-.734-.978-.1c-.37-.04-.367.54 0 .579zm4.818 6.879.817.666c.287.233.7-.174.41-.41l-5.735-4.669-.817-.666c-.287-.233-.7.174-.41.41z"
          fill="#000001"></path>
    <path d="M44.688 183.284q4.573.336 9.165.264a116.362 116.362 0 0 0 17.037-1.534c-.98-.246-1.959-.493-2.943-.719a73.714 73.714 0 0 0-8.821-1.449q-3.978-.409-7.982-.422c-2.655-.011-5.3.167-7.95.307s-5.286.218-7.922.449a57.037 57.037 0 0 0-6.476.952c2.269.437 4.557.764 6.845 1.089 3.01.428 6.013.841 9.047 1.063z"
          fill="#6bc4ff"></path>
    <path d="M86.9 178.644a.377.377 0 0 1 0 .067.3.3 0 0 0 0-.067zm-71.174-.964.016-.024a.2.2 0 0 0-.016.024zm70.974.734q-6.8-1.417-13.7-2.3t-13.818-1.224q-6.922-.348-13.86-.183-6.98.162-13.936.82-6.918.65-13.783 1.757-.857.138-1.71.282c-.011 0-.014.011-.024.014a.3.3 0 0 1 .378.2.241.241 0 0 1 .012.064c.01.136.015.271.024.407 2.05.683 4.108 1.345 6.186 1.941q1.276.367 2.565.7.582.148 1.166.286l.542.125a1.6 1.6 0 0 0 .49.087c.019.009.028.028.05.033 2.422.525 4.871.886 7.324 1.235 2.966.422 5.926.862 8.913 1.116a108.01 108.01 0 0 0 18.542-.064q5.193-.453 10.335-1.357a.229.229 0 0 0 .075-.029h.038a3.1 3.1 0 0 0 .619-.108l.813-.149a125.57 125.57 0 0 0 12.355-2.98c.019-.158.03-.316.051-.473.045-.322.477-.242.552.028a.244.244 0 0 0-.199-.228zm-32.851 5.134q-4.586.066-9.165-.264c-3.034-.222-6.037-.635-9.047-1.063-2.288-.325-4.576-.652-6.845-1.089a57.037 57.037 0 0 1 6.476-.952c2.636-.231 5.281-.31 7.922-.449s5.295-.318 7.95-.307 5.326.151 7.982.422a73.682 73.682 0 0 1 8.821 1.449c.984.226 1.963.473 2.943.719a116.362 116.362 0 0 1-17.033 1.534zm21.352-2.313q-.708.141-1.418.275a4.1 4.1 0 0 1-1.468.184c-.94-.19-1.872-.452-2.8-.685q-2.868-.715-5.786-1.195a79.71 79.71 0 0 0-11.624-1.025c-3.944-.061-7.878.24-11.815.428a72.533 72.533 0 0 0-13.164 1.608c.167-.044-.093-.053-.155-.067l-.271-.058c-.182-.042-.365-.084-.546-.128q-.591-.141-1.178-.292-1.256-.322-2.5-.684a148.265 148.265 0 0 1-5.286-1.652q6.315-1.031 12.682-1.687 6.846-.694 13.729-.92t13.8.054q6.864.279 13.693 1.074 6.919.807 13.759 2.165l.557.113q-5.048 1.458-10.2 2.5z"
          fill="#000001"></path>
    <path d="M5.194 187.473a108.572 108.572 0 0 0 11.156-.659c.143-.017.307-.119.29-.29-.278-2.747-.193-5.516-.357-8.272-.009-.136-.014-.271-.024-.407a.3.3 0 0 0-.326-.277.344.344 0 0 0-.064.012.256.256 0 0 0-.127.076l-.016.024a.245.245 0 0 0-.046.165c.194 2.8.1 5.623.358 8.422-3.6.427-7.222.554-10.844.626a.3.3 0 0 0-.179.381.363.363 0 0 0 .179.199zm81.153-8.857c-.021.157-.032.315-.051.473a31.968 31.968 0 0 0-.106 7.01.3.3 0 0 0 .29.29c3.335 0 6.672.077 10 .19q1.263.042 2.528.1c.373.018.372-.562 0-.579a292.746 292.746 0 0 0-10-.273q-1.129-.013-2.26-.015a31.405 31.405 0 0 1 .156-7.041.292.292 0 0 0 0-.059.377.377 0 0 0 0-.067c-.08-.271-.512-.351-.557-.029zm56.011-45.678c-.227.3.276.585.5.293a25.689 25.689 0 0 0 5.223-15.213 25.113 25.113 0 0 0-.369-4.581c-.063-.367-.621-.211-.558.154a25.109 25.109 0 0 1-2.385 15.526 24.778 24.778 0 0 1-2.411 3.821z"
          fill="#000001"></path>
    <path d="M144.7 135.808c-.244.28.164.691.41.41a26.863 26.863 0 0 0 6.468-18.545 25.741 25.741 0 0 0-.829-5.554.29.29 0 0 0-.559.154 26.256 26.256 0 0 1-2.326 18.958 25.1 25.1 0 0 1-3.164 4.577zM24.755 94.913l9.078 2.677 1.263.372a.29.29 0 0 0 .154-.558l-9.078-2.677-1.263-.372a.29.29 0 0 0-.154.558zm10.74-4.198 2.316 2.421c.259.27.668-.141.41-.41l-8.2-8.567-.775-.81c-.258-.27-.667.14-.409.41zm6.48.968c.08.364.639.21.558-.154l-2.346-10.6c-.081-.364-.639-.21-.559.154q1.172 5.298 2.347 10.6zm50.239-51.84.768.746c.267.26.678-.149.409-.41l-5.314-5.163-.768-.745c-.268-.26-.678.149-.41.409zm2.029-1.931q.216.443.434.885c.164.334.664.041.5-.293l-3.092-6.3-.434-.885c-.164-.335-.664-.041-.5.292q1.549 3.151 3.092 6.301z"
          fill="#000001"></path>
    <path d="M70.341 116.044q1.776 3.269 3.3 6.664c.951 2.114 1.767 4.268 2.577 6.438 1.111 2.978 2.252 5.946 3.3 8.947.966 2.77 1.818 5.575 2.577 8.409.486 1.814.967 3.635 1.379 5.468a31.7 31.7 0 0 1 .648 4.64 39.189 39.189 0 0 1 .073 4.761 16.817 16.817 0 0 1-.488 3.67 4.325 4.325 0 0 1-.63 1.315c3.288-1.649 6.6-3.242 9.913-4.847.335-.163.7-.3 1.014-.5.066-.041.009 0 .076-.058.039-.037.075-.075.11-.115a2.611 2.611 0 0 0 .335-.619 8.95 8.95 0 0 0 .462-2.352 41.09 41.09 0 0 0-.266-8.124 97.143 97.143 0 0 0-1.973-11.288 118.961 118.961 0 0 0-3.791-12.965q-.225-.63-.468-1.254a66.158 66.158 0 0 0-5.281-10.38 89.944 89.944 0 0 0-2.309-3.565c-.549-.651-1.055-1.344-1.58-2.014-1.294-1.649-2.6-3.294-3.977-4.871a30.63 30.63 0 0 0-1.883-2A5.765 5.765 0 0 0 72 100.276a3.563 3.563 0 0 0-1.137-.215 12.482 12.482 0 0 0-1.814.013c-.869.061-1.729.187-2.593.291.157.111.318.217.472.326.5.35 1 .7 1.488 1.06a3.143 3.143 0 0 1 1.008 1.015 1.57 1.57 0 0 1-.272 2 2.426 2.426 0 0 1-1.941.336c-.867-.153-1.854-.769-2.732-.357a1.837 1.837 0 0 0-.9 1.2 36.68 36.68 0 0 1 2.659 3.39 69.59 69.59 0 0 1 4.103 6.709z"
          fill="#3859ff"></path>
    <path d="M95.689 174.045a10.869 10.869 0 0 0-6.24-4.264 19.922 19.922 0 0 0-7.622-.318 16.156 16.156 0 0 0-5.934 1.762 8.681 8.681 0 0 0-2.594 2.2.294.294 0 0 0 .014.416.3.3 0 0 0 .191.079l7.426.19 11.819.3 2.69.069a.292.292 0 0 0 .288-.295.279.279 0 0 0-.038-.139z"
          fill="#000001"></path>
    <path d="M52.166 122.859c.4 2.727.933 5.432 1.568 8.113q.96 4.057 2.211 8.041 1.173 3.751 2.6 7.421c.825 2.111 1.717 4.2 2.729 6.227a42.6 42.6 0 0 0 5.234 8.307 22.817 22.817 0 0 0 7.174 5.809c2.279 1.152 5.271 2.052 7.6.528a4.365 4.365 0 0 0 1.909-2.551 17.5 17.5 0 0 0 .444-3.682 34.338 34.338 0 0 0-.768-9.188c-.778-3.281-1.632-6.55-2.627-9.771-.814-2.636-1.745-5.233-2.706-7.819-1.048-2.824-2.054-5.671-3.177-8.466a86.22 86.22 0 0 0-2.593-5.774 90.73 90.73 0 0 0-3.641-6.739 49.587 49.587 0 0 0-4.2-6.1q-.233-.283-.474-.565c-.134 1.2-.122 2.408-.289 3.6a2.377 2.377 0 0 1-.84 1.658 1.52 1.52 0 0 1-1.935-.233c-.963-.892-.718-2.415-.663-3.591.015-.312.033-.625.043-.937a1.412 1.412 0 0 0-.058-.729c-.14-.207-.239.07-.3.216s-.1.288-.153.432c-.117.342-.229.686-.341 1.031-.241.748-.475 1.5-.73 2.243a3.848 3.848 0 0 1-1.159 1.915 1.461 1.461 0 0 1-1.779-.081 2.133 2.133 0 0 1-.616-2.063c.143-1.077.382-2.143.555-3.216.016-.105.083-.3.049-.362-.142-.255-.567 0-.681.17a3.521 3.521 0 0 0-.4 1.268c-.081.405-.128.815-.181 1.225a6.678 6.678 0 0 1-.687 2.361 1.447 1.447 0 0 1-1.625.917c-.014 0-.026-.013-.041-.018a36.71 36.71 0 0 0-.076 2.89 57.421 57.421 0 0 0 .624 7.513zm4.419 4.627q1.917 2.769 3.884 5.5c1.839 2.56 3.712 5.095 5.542 7.662 1.5 2.1 2.951 4.236 4.329 6.42l1.515-13.709c.041-.367.62-.37.579 0l-1.609 14.561a.292.292 0 0 1-.539.147q-1.287-2.076-2.661-4.094c-1.638-2.409-3.356-4.761-5.068-7.116a484.93 484.93 0 0 1-6.472-9.078c-.214-.308.289-.597.5-.293z"
          fill="#6bc4ff"></path>
    <path d="M124.411 113.589a26.211 26.211 0 0 0 3.421-8.2 17.01 17.01 0 0 0-.073-5.418 27.249 27.249 0 0 0-1.859-6.7A110.505 110.505 0 0 0 113.07 98a19.108 19.108 0 0 1 .294 5.136 19.856 19.856 0 0 1-7.123 13.885.29.29 0 0 1-.4-.1c-.855-1.592-2.061-3.683-4.063-3.9-.216-.024-.464-.024-.448.249a1.191 1.191 0 0 0 .217.523c.248.4.571.746.821 1.145a10.119 10.119 0 0 1 1.156 2.7 15.554 15.554 0 0 1 .219 6.318c-.166 1.146-.412 2.279-.682 3.4a3.873 3.873 0 0 0-.2 1.721c.1.445.475.9.977.779a2.055 2.055 0 0 0 1.044-.912q.342-.468.674-.943c.553-.8 1.083-1.6 1.608-2.417a.291.291 0 0 1 .53.223c-.1.525-.231 1.04-.374 1.554a6.021 6.021 0 0 0-.236 1.01.989.989 0 0 0 1.266 1.09c.9-.233 1.456-1.293 1.887-2.038s.826-1.551 1.326-2.269a.291.291 0 0 1 .529.224 6.163 6.163 0 0 0-.082 1.336 7.428 7.428 0 0 0 .077 1.182c.074.324.247.952.648 1.009.5.071.922-.653 1.185-.989.2-.253.4-.5.606-.75 1.509-1.844 3.019-3.687 4.461-5.584a78.976 78.976 0 0 0 5.424-7.993zm1.818-7.627c-.083.364-.642.209-.559-.154a8.215 8.215 0 0 0 .156-2.712c-.039-.371.541-.367.58 0a8.741 8.741 0 0 1-.177 2.866zm-12.992 16.31-.318 1.074a.29.29 0 0 1-.559-.154l.319-1.075a.29.29 0 0 1 .558.155zm-5.046-.335c.155-.339.655-.044.5.293a4.147 4.147 0 0 0-.35 1.254c-.042.367-.622.37-.58 0a5.021 5.021 0 0 1 .43-1.547z"
          fill="#ffd2d2"></path>
    <path d="m125.991 92.624-.213.068a111.162 111.162 0 0 0-13.176 4.88.23.23 0 0 0-.134.3.141.141 0 0 0 0 .029 18.414 18.414 0 0 1 .352 3.311c0 .207.006.413 0 .62a20.27 20.27 0 0 1-3.92 11.638 15.544 15.544 0 0 1-2.723 2.856c-.862-1.568-1.987-3.279-3.79-3.781a1.58 1.58 0 0 0-1.342.048.9.9 0 0 0-.194 1.1 6.9 6.9 0 0 0 .843 1.263 8.937 8.937 0 0 1 .79 1.439 13.5 13.5 0 0 1 .729 7.191 38.235 38.235 0 0 1-.769 3.851 3.015 3.015 0 0 0 .176 2.465 1.4 1.4 0 0 0 .481.405c.01 0 .015.012.025.016 1.013.5 1.8-.463 2.353-1.228l.185-.259c.177-.247.346-.5.518-.75s.355-.508.528-.765a9.925 9.925 0 0 0-.129.562c-.011.055-.026.11-.036.166a2.372 2.372 0 0 0-.033.519 1.531 1.531 0 0 0 .39 1.008 1.676 1.676 0 0 0 2.178.178 5.69 5.69 0 0 0 1.611-1.971c.252-.433.489-.878.736-1.317 0 .061-.006.12 0 .181a7.58 7.58 0 0 1 .038.768 2.716 2.716 0 0 0 .3 1.288 1.139 1.139 0 0 0 1.265.745 1.924 1.924 0 0 0 .887-.608c.125-.137.236-.284.348-.431l.019-.023.006-.008.061-.078c1.321-1.674 2.7-3.3 4.019-4.976.361-.462.715-.928 1.07-1.394q.393-.516.779-1.036c1.365-1.834 2.675-3.709 3.88-5.652a32.354 32.354 0 0 0 4.07-8.689 14.725 14.725 0 0 0 .358-4.838 27.129 27.129 0 0 0-1.013-5.632c-.054-.187-.119-.369-.177-.554-.109-.35-.211-.7-.334-1.047-.033-.091-.074-.18-.107-.271a32.12 32.12 0 0 0-.573-1.451.29.29 0 0 0-.332-.136zm-11.465 34.533c-.2.249-.407.5-.606.75-.263.336-.686 1.06-1.185.989-.4-.057-.574-.685-.648-1.009a7.428 7.428 0 0 1-.077-1.182 6.163 6.163 0 0 1 .082-1.336.291.291 0 0 0-.529-.224c-.5.718-.888 1.513-1.326 2.269s-.992 1.8-1.887 2.038a.99.99 0 0 1-1.266-1.09 6.021 6.021 0 0 1 .236-1.01c.143-.514.275-1.029.374-1.554a.291.291 0 0 0-.53-.223 84.41 84.41 0 0 1-1.608 2.417q-.332.475-.674.943a2.055 2.055 0 0 1-1.044.912c-.5.117-.875-.334-.977-.779a3.873 3.873 0 0 1 .2-1.721c.27-1.125.516-2.258.682-3.4a15.554 15.554 0 0 0-.219-6.318 10.119 10.119 0 0 0-1.156-2.7c-.25-.4-.573-.747-.821-1.145a1.191 1.191 0 0 1-.217-.523c-.016-.273.232-.273.448-.249 2 .221 3.208 2.312 4.063 3.9a.29.29 0 0 0 .4.1 19.856 19.856 0 0 0 7.123-13.885A19.11 19.11 0 0 0 113.07 98a110.689 110.689 0 0 1 12.83-4.736 27.206 27.206 0 0 1 1.859 6.7 17.01 17.01 0 0 1 .073 5.418 26.211 26.211 0 0 1-3.421 8.2 78.976 78.976 0 0 1-5.424 7.984c-1.442 1.9-2.952 3.74-4.461 5.584z"
          fill="#000001"></path>
    <path d="M97.358 75.691a17.055 17.055 0 0 1 1.2-3.25q-.6-.713-1.177-1.436l-.048-.061c-.042.057-.076.121-.122.174a2.861 2.861 0 0 1-1.982.759 6.977 6.977 0 0 1-2.325-.186 8.5 8.5 0 0 1-.791 1.153 15.8 15.8 0 0 1-5.08 3.794 8.7 8.7 0 0 1-3.263.73l2.936 3.3a28.524 28.524 0 0 0 1.953 2.132c1.134 1.039 2.659.809 3.975.263a11.465 11.465 0 0 0 2.384-1.52c.668-.5 1.316-1.034 1.953-1.576a13.428 13.428 0 0 1 .387-4.276z"
          fill="#ffd2d2"></path>
    <path d="M86.942 81.8c.309.348.619.695.936 1.035a3.875 3.875 0 0 0 1.651 1.137 4.081 4.081 0 0 0 2.024.032 7.912 7.912 0 0 0 2.927-1.362 37.024 37.024 0 0 0 2.567-1.984q-.049-.347-.076-.7a42.149 42.149 0 0 1-1.953 1.576 11.465 11.465 0 0 1-2.384 1.52c-1.316.546-2.841.776-3.975-.263a28.524 28.524 0 0 1-1.949-2.134l-2.936-3.3q-.395.011-.79-.017l2.934 3.293q.3.342.607.687c.139.168.275.325.417.48zm11.62-9.359c.091-.19.183-.38.279-.568-.336-.405-.672-.81-1-1.221-.065-.081-.127-.164-.192-.245a2.9 2.9 0 0 1-.311.537l.048.061q.58.725 1.176 1.436z"
          fill="#000001"></path>
    <path d="M79.319 97.591a7.8 7.8 0 0 1-1.889.9 12.534 12.534 0 0 1-4.8.433 23.744 23.744 0 0 1-2.448-.329 20.324 20.324 0 0 0-2.329-.366 24.008 24.008 0 0 0-9.779 1.724 10.4 10.4 0 0 0-6.3 6.022 9.8 9.8 0 0 0-.691 4.362c.038.507.186 1.565.862 1.612.74.051 1.107-1.227 1.249-1.761.207-.775.233-1.583.389-2.367.129-.646.3-1.6 1-1.88.469-.186 1.206.016 1.222.614a6.3 6.3 0 0 1-.182 1.166l-.3 1.715a3.8 3.8 0 0 0-.086 1.765.96.96 0 0 0 1.578.472 4.634 4.634 0 0 0 .97-1.978c.241-.731.471-1.466.711-2.2.1-.316.208-.633.323-.946a1.241 1.241 0 0 1 .515-.739c.68-.349 1 .5 1.009 1.016.006.556-.044 1.114-.066 1.669a10.54 10.54 0 0 0 .015 1.829 1.414 1.414 0 0 0 1.23 1.268c.716 0 .982-.859 1.064-1.437.085-.595.114-1.2.153-1.8.078-1.183.007-2.582.786-3.561a2.106 2.106 0 0 1 2.058-.715 11.947 11.947 0 0 0 2.387.5 1.269 1.269 0 0 0 .938-.379 1 1 0 0 0 .061-1.052 2.586 2.586 0 0 0-.952-.976c-.484-.356-.978-.7-1.469-1.043a9.616 9.616 0 0 1-1.026-.768.294.294 0 0 1 .012-.415.29.29 0 0 1 .193-.08c1.242-.12 2.473-.336 3.722-.4a5.771 5.771 0 0 1 2.974.372 7.539 7.539 0 0 1 1.518 1.221 32.256 32.256 0 0 1 1.867 1.993c1.361 1.558 2.647 3.182 3.923 4.809l.852 1.087.4.5a2.651 2.651 0 0 0 .345.438 1.587 1.587 0 0 0 .714.118 6.069 6.069 0 0 0 .842-.022 8.013 8.013 0 0 0 1.8-.4 13.64 13.64 0 0 0 6.011-4.631q-.272-.672-.521-1.355a19.46 19.46 0 0 1-6.051-2.147 20.684 20.684 0 0 1-4.804-3.858zM55.27 103.74c-.2.315-.7.024-.5-.293l.807-1.286c.2-.315.7-.024.5.293zm4.837-.44.578-1.281c.154-.34.653-.045.5.293l-.578 1.281c-.154.339-.653.045-.5-.293zm25.405 3.678a6.269 6.269 0 0 1-3.143.929.29.29 0 0 1 0-.58 5.676 5.676 0 0 0 2.851-.85c.319-.196.609.305.292.501z"
          fill="#ffd2d2"></path>
    <path d="M51.06 112.063a1.255 1.255 0 0 0 .547.395c.015 0 .027.014.041.018a1.447 1.447 0 0 0 1.625-.917 6.678 6.678 0 0 0 .687-2.361c.053-.41.1-.82.181-1.225a3.521 3.521 0 0 1 .4-1.268c.114-.167.539-.425.681-.17.034.061-.033.257-.049.362-.173 1.073-.412 2.139-.555 3.216a2.133 2.133 0 0 0 .616 2.063 1.461 1.461 0 0 0 1.779.081 3.848 3.848 0 0 0 1.159-1.915c.255-.744.489-1.5.73-2.243.112-.345.224-.689.341-1.031.05-.144.1-.291.153-.432s.158-.423.3-.216a1.413 1.413 0 0 1 .058.729c-.01.312-.028.625-.043.937-.055 1.176-.3 2.7.663 3.591a1.52 1.52 0 0 0 1.935.233 2.377 2.377 0 0 0 .84-1.658c.167-1.195.154-2.406.289-3.6 0-.028.005-.056.008-.084a3.689 3.689 0 0 1 .13-.623 1.837 1.837 0 0 1 .9-1.2c.878-.412 1.865.2 2.732.357a2.422 2.422 0 0 0 1.941-.336 1.57 1.57 0 0 0 .272-2 3.143 3.143 0 0 0-1.008-1.015c-.488-.364-.99-.71-1.488-1.06-.154-.109-.315-.215-.472-.326.864-.1 1.724-.23 2.593-.291a12.625 12.625 0 0 1 1.814-.013 3.563 3.563 0 0 1 1.137.215 5.765 5.765 0 0 1 1.462 1.131c.662.632 1.28 1.31 1.883 2 1.381 1.577 2.683 3.222 3.977 4.871.525.67 1.031 1.363 1.58 2.014l.012.015a.889.889 0 0 0 .64.244c.079.01.158.015.237.022a5.469 5.469 0 0 0 .665.026 7.817 7.817 0 0 0 1.8-.275 13.544 13.544 0 0 0 6.724-4.814c.081-.1.165-.192.244-.291a.291.291 0 0 0 .075-.282c-.1-.239-.185-.482-.278-.723a.292.292 0 0 1-.568.07c-.136-.427-.254-.86-.383-1.29a18.764 18.764 0 0 1-5.661-2.037 20.362 20.362 0 0 1-4.84-3.939.291.291 0 0 0-.324-.056l-.027.011c-2.886 2.013-6.621 1.492-9.861.867a15.833 15.833 0 0 0-4.992-.055 28.87 28.87 0 0 0-5.13 1.157 14.39 14.39 0 0 0-4.263 1.977 11.239 11.239 0 0 0-3.039 3.414 10.887 10.887 0 0 0-1.407 4.34 8.049 8.049 0 0 0 .052 2.262 2.568 2.568 0 0 0 .485 1.128zm39.625-7.106a13.64 13.64 0 0 1-6.011 4.631 8.013 8.013 0 0 1-1.8.4 6.069 6.069 0 0 1-.842.022 1.587 1.587 0 0 1-.714-.118 2.651 2.651 0 0 1-.345-.438 28.23 28.23 0 0 0-.4-.5l-.852-1.087c-1.276-1.627-2.562-3.251-3.923-4.809a32.564 32.564 0 0 0-1.867-1.993 7.539 7.539 0 0 0-1.518-1.221 5.782 5.782 0 0 0-2.974-.372c-1.249.06-2.48.276-3.722.4a.293.293 0 0 0-.285.3.3.3 0 0 0 .08.193 9.616 9.616 0 0 0 1.026.768c.491.346.985.687 1.469 1.043a2.586 2.586 0 0 1 .952.976 1 1 0 0 1-.061 1.052 1.269 1.269 0 0 1-.938.379 11.947 11.947 0 0 1-2.387-.5 2.106 2.106 0 0 0-2.058.715c-.779.979-.708 2.378-.786 3.561-.039.6-.068 1.2-.153 1.8-.082.578-.348 1.432-1.064 1.437a1.414 1.414 0 0 1-1.23-1.268 10.54 10.54 0 0 1-.015-1.829c.022-.555.072-1.113.066-1.669-.005-.518-.329-1.365-1.009-1.016a1.241 1.241 0 0 0-.515.739c-.115.313-.219.63-.323.946-.24.732-.47 1.467-.711 2.2a4.634 4.634 0 0 1-.97 1.978.961.961 0 0 1-1.578-.472 3.8 3.8 0 0 1 .086-1.765l.3-1.715a6.3 6.3 0 0 0 .182-1.166c-.016-.6-.753-.8-1.222-.614-.7.276-.872 1.234-1 1.88-.156.784-.182 1.592-.389 2.367-.142.534-.509 1.812-1.249 1.761-.676-.047-.824-1.105-.862-1.612a9.8 9.8 0 0 1 .691-4.362 10.4 10.4 0 0 1 6.3-6.022 24.008 24.008 0 0 1 9.779-1.724 20.324 20.324 0 0 1 2.329.366 24.024 24.024 0 0 0 2.448.33 12.554 12.554 0 0 0 4.8-.434 7.8 7.8 0 0 0 1.889-.9 20.684 20.684 0 0 0 4.794 3.864 19.46 19.46 0 0 0 6.051 2.147q.249.683.521 1.355zm35.141-1.857a8.215 8.215 0 0 1-.156 2.712c-.083.363.476.518.559.154a8.741 8.741 0 0 0 .177-2.866c-.039-.371-.619-.375-.58 0zm-3.894-39.085q-.2-1.6-.507-3.178c-1.126-5.688-6.3-9.915-11.565-11.71a23.088 23.088 0 0 0-16.72 1.006 20.187 20.187 0 0 0-6.626 4.594c.235.03.47.062.7.1a13.232 13.232 0 0 1 2.152.573 10.26 10.26 0 0 1 3.7 2.228 11.4 11.4 0 0 1 2.528 4 4.839 4.839 0 0 1 .259 1.315 10.402 10.402 0 0 1 .008 1.556c1.147.508 2.381.809 3.516 1.346a2.641 2.641 0 0 1 1.3 1c.483.946-.159 2.083-.639 2.889-.421.7-.825 1.413-1.2 2.135-.1.188-.188.378-.279.568a17.055 17.055 0 0 0-1.2 3.25 13.428 13.428 0 0 0-.387 4.273c.018.232.043.464.076.694a10.486 10.486 0 0 0 .236 1.206 10.171 10.171 0 0 0 2.637 4.611 7.969 7.969 0 0 0 4.877 2.3 13.737 13.737 0 0 0 5.77-.894 15.841 15.841 0 0 0 4.647-2.383 14.367 14.367 0 0 0 1.352-1.351q.645-.674 1.232-1.4c.12-.147.237-.3.353-.446a17.647 17.647 0 0 0 1.078-1.555 20.094 20.094 0 0 0 2.468-6.425 31.724 31.724 0 0 0 .234-10.302z"
          fill="#000001"></path>
    <path d="M82.369 107.907a6.269 6.269 0 0 0 3.143-.929c.317-.2.027-.7-.292-.5a5.676 5.676 0 0 1-2.851.85.29.29 0 0 0 0 .58zm12.666-46.119a10.993 10.993 0 0 0-2.123-3.488 9.185 9.185 0 0 0-3.052-2.085 12.473 12.473 0 0 0-6.5-.911 10.73 10.73 0 0 0-4.732 1.896 9.72 9.72 0 0 0-3.436 3.942 6.081 6.081 0 0 0-.444 3.311c.08-.25.171-.5.268-.748a2.551 2.551 0 0 1 .837-2.321.293.293 0 0 1 .384 0 7.719 7.719 0 0 1 1.408-1.541 10.662 10.662 0 0 1 10.147-1.413 10.111 10.111 0 0 1 4.345 3.155 9.117 9.117 0 0 1 1.931 5.32 5.488 5.488 0 0 1 .9-.3c.085-.355.155-.714.206-1.075a7.8 7.8 0 0 0-.139-3.742z"
          fill="#000001"></path>
    <path d="M74.9 66.269a9.568 9.568 0 0 0 .438 4.817 9.178 9.178 0 0 0 7.634 5.691 8.605 8.605 0 0 0 5.192-1.38 11.9 11.9 0 0 0 4.36-4.183.291.291 0 0 1 .327-.133 6.423 6.423 0 0 0 2.159.232 2.644 2.644 0 0 0 1.711-.511 2.862 2.862 0 0 0 .689-1.649 2.024 2.024 0 0 0-.307-1.584c-.887-.866-2.2-.458-3.161.035a.294.294 0 0 1-.4-.113.3.3 0 0 1-.037-.138 9.012 9.012 0 0 0-.121-1.607 9.147 9.147 0 0 0-7.067-7.155c-3.131-.706-7.076.009-9.192 2.59a10.218 10.218 0 0 0-1.5 2.518c.082.306.227.584.344.908a1.291 1.291 0 0 1-1.069 1.662zm3.542 3.853c-.113-.208.077-.515.327-.426a8.821 8.821 0 0 0 6.189.033.266.266 0 0 1 .063-.017.228.228 0 0 1 .291.138l.007.023a.269.269 0 0 1 0 .27 3.816 3.816 0 0 1-3.527 1.984 4.189 4.189 0 0 1-3.353-2.005zM88 67.862a1.49 1.49 0 0 0-.423-.752c-.267-.261.143-.671.41-.41a2.057 2.057 0 0 1 .572 1.008c.09.363-.469.516-.559.154zm7.874 1.507a20.544 20.544 0 0 0-2.139.335c-.365.076-.519-.483-.155-.559a21.951 21.951 0 0 1 2.294-.355c.375-.039.371.541.004.579zm-9.843-6.511a3.043 3.043 0 0 1 3.041-.178c.347.129.2.689-.154.559a2.553 2.553 0 0 0-2.477.029c-.291.227-.7-.181-.41-.41zm-9.231-.184a2.456 2.456 0 0 1 2.81-.582c.342.148.046.647-.292.5a1.874 1.874 0 0 0-2.109.492c-.249.278-.658-.134-.409-.41zm.31 3.626a2.275 2.275 0 0 1 .4 1.01c.05.365-.508.521-.559.154a1.923 1.923 0 0 0-.338-.871c-.214-.307.289-.6.5-.293z"
          fill="#ffd2d2"></path>
    <path d="M75.014 65.637a.729.729 0 0 0 .426-.428.846.846 0 0 0-.133-.666 10.56 10.56 0 0 0-.293 1.094z"
          fill="#ffd2d2"></path>
    <path d="M83.774 77.368a8.7 8.7 0 0 0 3.263-.73 15.8 15.8 0 0 0 5.08-3.794 8.406 8.406 0 0 0 .791-1.153 6.977 6.977 0 0 0 2.325.186 2.861 2.861 0 0 0 1.982-.759c.046-.053.08-.117.122-.174a2.9 2.9 0 0 0 .311-.537 4.294 4.294 0 0 0 .343-1.294 2.49 2.49 0 0 0-.481-1.954 2.388 2.388 0 0 0-1.922-.654 3.921 3.921 0 0 0-.618.1 5.488 5.488 0 0 0-.9.3 9.117 9.117 0 0 0-1.931-5.32 10.111 10.111 0 0 0-4.345-3.155 10.662 10.662 0 0 0-10.147 1.413 7.719 7.719 0 0 0-1.408 1.541.253.253 0 0 1 .082.347.263.263 0 0 1-.056.064 1.978 1.978 0 0 0-.7 1.372 1.589 1.589 0 0 0 .063.531 10.218 10.218 0 0 1 1.5-2.518c2.116-2.581 6.061-3.3 9.192-2.59a9.147 9.147 0 0 1 7.067 7.155 9.012 9.012 0 0 1 .121 1.607.293.293 0 0 0 .3.288.3.3 0 0 0 .138-.037c.96-.493 2.274-.9 3.161-.035a2.024 2.024 0 0 1 .307 1.584 2.862 2.862 0 0 1-.689 1.649 2.644 2.644 0 0 1-1.711.511 6.423 6.423 0 0 1-2.159-.232.291.291 0 0 0-.327.133 11.9 11.9 0 0 1-4.36 4.183 8.605 8.605 0 0 1-5.192 1.38 9.178 9.178 0 0 1-7.634-5.691 9.568 9.568 0 0 1-.438-4.817 2.117 2.117 0 0 1-.336.063c-.082.007-.165.01-.248.009a10.412 10.412 0 0 0 .1 3.65 9.675 9.675 0 0 0 7.258 7.167 8.58 8.58 0 0 0 1.315.193q.387.028.781.018z"
          fill="#000001"></path>
    <path d="M75.014 65.637a10.818 10.818 0 0 1 .293-1.094l-.037-.075a2.782 2.782 0 0 1-.237-.638c-.008-.041-.01-.082-.017-.123-.1.248-.188.5-.268.748l-.006.017a11.721 11.721 0 0 0-.32 1.235c0 .018-.008.036-.011.054a1.838 1.838 0 0 0 .603-.124zm10.303 4.506a.269.269 0 0 0 0-.27.228.228 0 0 0-.275-.168l-.023.007a.266.266 0 0 0-.063.017 8.821 8.821 0 0 1-6.189-.033c-.25-.089-.44.218-.327.426a4.189 4.189 0 0 0 3.351 2 3.816 3.816 0 0 0 3.526-1.979zm-1.03.423a3.206 3.206 0 0 1-2.5.982 3.782 3.782 0 0 1-2.327-1.032 9.436 9.436 0 0 0 4.827.05zm11.591-1.776a21.951 21.951 0 0 0-2.294.355c-.364.076-.21.635.155.559a20.544 20.544 0 0 1 2.139-.335c.367-.038.371-.618 0-.579zm-18.93-1.326c.051.367.609.211.559-.154a2.275 2.275 0 0 0-.4-1.01c-.211-.3-.714-.014-.5.293a1.923 1.923 0 0 1 .341.871zm11.043-.764c-.267-.261-.677.149-.41.41a1.49 1.49 0 0 1 .423.752c.086.362.645.209.559-.154a2.057 2.057 0 0 0-.572-1.008zM77.21 63.084a1.874 1.874 0 0 1 2.109-.492c.338.147.634-.352.292-.5a2.456 2.456 0 0 0-2.81.582c-.249.276.16.688.409.41zm9.235.184a2.553 2.553 0 0 1 2.477-.029c.35.13.5-.43.154-.559a3.043 3.043 0 0 0-3.041.178c-.293.229.119.642.41.41zm4.247 39.796a82.593 82.593 0 0 1-1.393-5.133c-.085-.363-.644-.209-.559.154a85.335 85.335 0 0 0 1.3 4.831l.023.076c.129.43.247.863.383 1.29a.292.292 0 0 0 .568-.07.3.3 0 0 0-.009-.084c-.105-.353-.205-.71-.313-1.064zm9.456 37.908a6.859 6.859 0 0 1 .429-2.71c.13-.35-.429-.5-.559-.154a7.3 7.3 0 0 0-.45 2.864c.016.372.596.374.58 0zm8.193-17.488a4.147 4.147 0 0 1 .35-1.254c.155-.337-.345-.632-.5-.293a5.021 5.021 0 0 0-.43 1.547c-.042.37.539.367.58 0zm4.019-.292a.29.29 0 0 0 .559.154l.318-1.074a.29.29 0 0 0-.558-.155l-.319 1.075zm-51.752-19.599.578-1.281c.152-.338-.347-.633-.5-.293l-.578 1.281c-.153.338.346.632.5.293zm-4.531-1.139c.2-.317-.3-.608-.5-.293l-.807 1.286c-.2.317.3.608.5.293z"
          fill="#000001"></path>
    <path d="M74.561 66.332a2.117 2.117 0 0 0 .336-.063 1.291 1.291 0 0 0 1.071-1.662c-.117-.324-.262-.6-.344-.908a1.589 1.589 0 0 1-.063-.531 1.978 1.978 0 0 1 .7-1.372.253.253 0 0 0 .038-.355.263.263 0 0 0-.064-.056.293.293 0 0 0-.384 0 2.551 2.551 0 0 0-.837 2.321c.007.041.009.082.018.123a2.734 2.734 0 0 0 .236.638l.037.075a.846.846 0 0 1 .133.666.731.731 0 0 1-.426.428 1.838 1.838 0 0 1-.6.124c-.147.009-.29.008-.415.007a2.391 2.391 0 0 0-1.485.278.942.942 0 0 0-.357 1.113 1.733 1.733 0 0 0 .793.7.749.749 0 0 1 .347.325c.091.251-.153.489-.353.6-.571.311-1.264-.049-1.861.135s-.386 1.078-.306 1.526c.065.366.623.211.559-.155a3.722 3.722 0 0 1-.057-.483c0-.061-.044-.285 0-.341.071-.093.764.014.879.018a1.849 1.849 0 0 0 1.329-.376 1.046 1.046 0 0 0 .371-1.08 1.412 1.412 0 0 0-.707-.725c-.33-.2-.767-.546-.207-.842a2.965 2.965 0 0 1 1.374-.121c.084.003.163 0 .245-.007zm11.246-12.545c.018.371.6.373.579 0a1.546 1.546 0 0 0-.379-.851c-.175-.242-.359-.521-.013-.7a2.537 2.537 0 0 1 .989-.14 1.667 1.667 0 0 0 .869-.282c.642-.491.236-1.171-.136-1.673a.987.987 0 0 1-.185-1.075.882.882 0 0 1 1.1-.392c.354.122.506-.437.154-.558a1.447 1.447 0 0 0-1.846.884 1.3 1.3 0 0 0-.054.194 1.516 1.516 0 0 0 .277 1.167c.17.241.686.712.341 1-.282.232-.743.154-1.078.186a1.557 1.557 0 0 0-.986.386.853.853 0 0 0-.149.949c.131.292.5.566.517.905zm-3.298-1.427a1.409 1.409 0 0 0 .875.1c.141-.016.7-.11.748.145.025.145-.335.273-.431.339a.739.739 0 0 0-.351.479.293.293 0 0 0 .074.282 1.617 1.617 0 0 0 1.533.322c.355-.11.2-.669-.154-.559a1.043 1.043 0 0 1-.774-.051c.079-.056.179-.1.253-.144a.9.9 0 0 0 .384-.411.754.754 0 0 0-.507-.938l-.056-.014a1.6 1.6 0 0 0-.719-.029c-.276.031-.632.087-.742-.237-.2-.587.52-.969.935-1.182.332-.17.039-.671-.292-.5A2.129 2.129 0 0 0 82.1 51.1a1.079 1.079 0 0 0 .409 1.26z"
          fill="#000001"></path>
</svg>