<svg xmlns="http://www.w3.org/2000/svg" viewBox="0 0 200 200">
    <defs></defs>
    <path d="m138.971 153.129-19.27-20.57a4.815 4.815 0 0 0-5.333-.866l-7.849 3.9a2.363 2.363 0 0 0-.812 3.924l2.707 2.869c-13.133 6.138-13.449 5.687-13.8 6.821l-5.955-6.469a2.687 2.687 0 0 0-2.977-.568l-14.02 6.36a1.48 1.48 0 0 0-.514 2.463l5.657 6.117a2.7 2.7 0 0 0-1.029.216l-6.414 2.9c.081.3.125.583.178.827 5.813-2.384 6.834-3.727 8.239-2.885 12.259 13.192 12.674 13.083 11.394 13.722l-14.019 6.361c-1.863.891-2.89-1.689-6.523-5.251-5.771-6.775-8.213-7.721-6.55-8.553l3.627-1.65c-.217-.19-.433-.406-.65-.6-2.741 1.37-3.831 1.388-4.2 2.409l-5.6-6.063a2.69 2.69 0 0 0-2.977-.568l-14.02 6.36a1.48 1.48 0 0 0-.514 2.463l5.657 6.117a2.55 2.55 0 0 0-1.029.217c-14.209 6.286-14.753 6.182-14.967 7.47a1.562 1.562 0 0 0 .433 1.353l11.286 12.261a2.721 2.721 0 0 0 2.977.568c14.393-6.618 14.414-6.176 14.887-7.2l5.521 5.982a2.719 2.719 0 0 0 2.977.568c19.119-8.833 17.493-5.153 8.878-14.94a2.663 2.663 0 0 0 1.136-.216c14.378-6.611 14.415-6.178 14.886-7.2 5.008 5.027 5.914 7.744 8.5 6.549 18.929-8.745 17.483-5.158 9.2-14.588.977 0-.092.354 14.453-6.252l2.409 2.571a4.813 4.813 0 0 0 5.332.866l7.849-3.9a2.342 2.342 0 0 0 .839-3.895zm-100.44 11.936 14.02-6.36a1.948 1.948 0 0 1 2.057.379c10 10.782 12.89 13.37 11.042 13.37-13.271 5.694-14.158 7.2-15.725 6.279-5.166-5.56-4.648-5.17-5.169-5.467-6.271-6.924-7.587-7.52-6.225-8.201zm17.674 22.058a.844.844 0 0 1-.488.542l-14.02 6.36a1.936 1.936 0 0 1-2.056-.379C29.1 182.069 26.889 181.09 28.625 180.222c12.769-5.319 14.034-7.233 15.671-6.252.093.1 6.727 7.164 6.631 7.064.238.359 5.261 5.783 5.17 5.683a.57.57 0 0 1 .108.406zm22.9-.108-14.02 6.361a1.964 1.964 0 0 1-2.06-.376c-.095-.1-10.929-11.84-11.226-12.369-.259-.461-.274-.814.1-1 .027 0 .054-.028.081-.028 14.993-6.807 14.941-7.219 16.05-6.062 12.003 12.506 12.394 12.813 11.07 13.474zm4.3-24.034c-5.171-5.566-4.65-5.171-5.169-5.467-5.425-6.412-7.913-7.424-6.252-8.255L86 142.9a1.959 1.959 0 0 1 2.057.378l11.286 12.261a.638.638 0 0 1-.244 1.11c-13.807 6.263-14.055 6.414-14.155 6.414a1.724 1.724 0 0 1-1.539-.082zm29.123 8.255-14.02 6.364a1.952 1.952 0 0 1-2.057-.38c-.98-1.054-11.935-13.038-11.422-12.477a.613.613 0 0 1 .3-.893c.027 0 .054-.027.081-.027 13.3-5.623 14.647-7.618 16.131-6.009 11.81 12.805 12.266 12.786 10.987 13.422zm-3.6-8.444a1.953 1.953 0 0 1-2.058-.379c-11.756-12.678-12.354-12.755-11.015-13.425l13.126-5.954 12.992 13.857zm19.811-10.854c0 1.365-.927.761-7.361-.3-1.31-.218-2.264-.824-1.191-1.732.081-.081.189-.108.27-.189 1.624-1.191 1.6-1.191.163-2.49-2.057-1.84-4.114-3.708-6.171-5.576-.271-.243-.839-.46-.514-1s2.192-1.353 3.383-2c.595-.325 1.028-.027 1.407.487 1.651 2.22 3.41 4.358 4.872 6.74.866 1.407.866 1.407 2.3.676 3.347-1.674 2.843-1.59 2.843 5.384z"
          fill="#77d8a2"></path>
    <path d="M135.7 54.448c-44.9.122-43.675.659-45.551-1.218a4.335 4.335 0 0 1-1.435-3.166c0-3.952-.027-7.876.028-11.828a4.3 4.3 0 0 1 4.222-4.249c.1-.006 89.75 0 84.038 0 7.647 0 5.232 4.656 5.711 15.752a4.8 4.8 0 0 1-4.872 4.79c-6.911-.067-40.281-.086-42.141-.081zm41.194-.731c3.058.028 5.251-1.38 5.034-5.115-.516-9.638 1.686-13.858-4.845-13.857H93.424c-2.274.081-3.816 1.38-3.9 3.626-.135 3.871-.108 7.768 0 11.639.055 2.246 1.6 3.545 3.871 3.653 5.073.337 51.205-.2 83.495.054z"
          fill="#c98bef"></path>
    <path d="M105.6 40.807a3.573 3.573 0 1 1-3.572 3.573 3.573 3.573 0 0 1 3.572-3.573zm14.561 0a3.573 3.573 0 1 1-3.573 3.573 3.573 3.573 0 0 1 3.573-3.573zm14.539 0a3.573 3.573 0 1 1-3.573 3.573 3.573 3.573 0 0 1 3.573-3.573zm15.476 7.281a3.844 3.844 0 1 1 3.844-3.844 3.848 3.848 0 0 1-3.844 3.844zm0-6.875a3.032 3.032 0 1 0 3.032 3.031 3.035 3.035 0 0 0-3.032-3.031zm15.265 6.875a3.844 3.844 0 1 1 3.844-3.844 3.848 3.848 0 0 1-3.844 3.844zm0-6.875a3.032 3.032 0 1 0 3.031 3.031 3.034 3.034 0 0 0-3.031-3.031z"
          fill="#77d8a2"></path>
    <path d="M135.723 179.41a.406.406 0 0 1 0-.812c15.606-.306 15.1-.244 15.1.27.003.686.412.39-15.1.542zm-8.523 3.464a.4.4 0 0 1-.406-.406c0-.487-.238-.541 9.879-.541 1.122.1 2.111-.255 2.111.406-.002.685.054.39-11.584.541zM15.146 163.658a.406.406 0 0 1 0-.812c6.369-.161 13.011-.136 12.911-.136a.406.406 0 0 1 0 .812c-5.349.008-7.357.038-12.911.136zm5.44 4.032a.406.406 0 0 1 0-.812c2.842-.081 5.711-.135 8.553-.135.929.09 1.949-.253 1.949.406 0 .681-.082.391-10.502.541z"
          fill="#c98bef"></path>
    <path d="M124.031 76.777c-.14-.63-.081-6.758-.081-6.658 0-3.654 3.572-6.6 7.957-6.6h4.98c4.385 0 7.965 2.977 7.957 6.6-.012 5.389.059 5.582-.081 6.279a3.225 3.225 0 0 1 .731.406 59.455 59.455 0 0 0 .162-6.685c0-4.087-3.951-7.416-8.769-7.416h-4.98c-4.845 0-8.786 3.329-8.769 7.416.023 5.849-.111 6.122.162 7.146a5.738 5.738 0 0 1 .731-.488z"
          fill="#000001"></path>
    <path d="M127.522 75.911v-4.493a5 5 0 0 1 5.2-4.79h3.329a5 5 0 0 1 5.2 4.79c0 4.384.012 4.229-.026 4.385.27 0 .541.027.812.027l.026-4.439a5.815 5.815 0 0 0-6.008-5.6h-3.329a5.833 5.833 0 0 0-6.009 5.6v4.574c.237 0 .508-.027.805-.054z"
          fill="#000001"></path>
    <path d="M137.32 75.8c-9.355.016-15.536-1-15.536 5.413v7.5a9.773 9.773 0 0 0 9.744 9.744h5.792a9.773 9.773 0 0 0 9.744-9.744v-8.119c0-5.359-4.385-4.8-9.744-4.794zm6.546 15.981c-1.358 2.615-5.318 5.74-5.679 4.479-.389-1.357 2.554-.593 4.725-4.965.309-.556 1.206.005.954.489zm.948-3.071c0 .512-1.04.516-.964-.054v-.376c.182-4.568-.408-5.629.482-5.629.643 0 .482-.016.482 6.062z"
          fill="#ffd869"></path>
    <path d="M108.441 157c-.563-1.012-.529-.558-.352-3.356 1.138.251 3.708 1.376 3.817-.244.1-.984-.569-1.1-1.462-1.029-.433 0-2.18-.383-1.949-.324a9.173 9.173 0 0 1 1.353-.569c.08-.1.947-.53.38-1.38-.737-1.013-1.834-.007-5.9 2.03-1.413.47-.855 2.627 1.137 1.488.866-.433.847-.575.758.054-.012 1.41-.476 3.811.893 4.006.619.063.82-.235 1.325-.676zm-19.487-4.656c-1.234-4.318-8.193-2.22-7.9 1.408.325 4.27 8.946 2.239 7.9-1.408zm-1.949.839a3.251 3.251 0 0 1-3.951.92c-1.271-.843 2.769-3.72 3.978-1.786a.628.628 0 0 1-.027.866zm16.24 14.562c-.069-.1-1.892-2.027-2.328-2.68l-.433-.622c0-1.231-3.878-1.144-.081 2.652a35.628 35.628 0 0 1-5.007-.92c-.934-.234-1.906.817-.677 1.678a15.251 15.251 0 0 1 2.544 3.166c.392.912 1 .97 1.489.623 1.061-.758-.385-2.289-1.272-3.275 1.229.23 4.961.67 5.061.65a.822.822 0 0 0 .704-1.272zm-47.745.568a.961.961 0 0 0-.46-1.841c-.162 0-.6.028-2.382.244-3.213.4-4.511-.185-4.6 1.083-.064 1.085.9 1.027 1.57 1 .8-.081.449-.1.866.217.808.629 1.308 1.177 1.434 1.272-.054.108-.162.243-.27.46-1.609 2.734.719 3.273 1.245 2.219-.003-1.182 1.853-3.654 2.597-4.654zm-3.113.217.812-.109c-.556.743-.229.545-.811.109zm14.806 15.67c.542.255 1.063.5 1.543.136 1.011-.708-.337-1.969-1.218-3.005-.677-.761-.31-1.322-1.083-1.542-.638-.24-1.96.773-.487 2.246a3.987 3.987 0 0 0-1.082-.243c-.334 0-1.341.248-.569 1.407 1.248.624 1.884 2.378.487 1.57a2.333 2.333 0 0 1-1.353-1.9.959.959 0 1 0-1.84.514c.629 2.045 3.486 4.055 5.142 2.951a1.718 1.718 0 0 0 .46-2.134zm-24.223 2.869.135-.216a6.915 6.915 0 0 0-1.218-1.6c3.619-1.645 2.471-.72 3.248-1.11a.967.967 0 0 0 .46-1.272 34.119 34.119 0 0 0-2.842-1.894c-.845-.338-1.789.833.081 2-2.693.947-1.956 1.048-2.571.434-.479-.56-.937-1.142-1.6-.812a.944.944 0 0 0-.27 1.272c.943 1.648 3.407 4.698 4.577 3.198z"
          fill="#77d8a2"></path>
    <path d="M66.76 81.135a.413.413 0 0 0-.433.7 1.365 1.365 0 0 1 .487.487c-.535.053-1.239.1-1.109.622.1.359.614.322.514.3a4.221 4.221 0 0 1 .812-.108.408.408 0 0 0 .812.054 2.257 2.257 0 0 0-1.083-2.055zm-50.288 41.491c.082-1.3-.947-2.084-.893-3.22.271.027.487 0 .6.081a9.641 9.641 0 0 1 3.166 4.844c.568 1.954-1.645.837-3.058 2.788a1.149 1.149 0 0 1-1.6.217 31.9 31.9 0 0 1-6.2-4.168c-1.65-1.415 1.696-3.056 7.985-.542z"
          fill="#000001"></path>
    <path d="M134.668 5a11.284 11.284 0 0 0-6.09 20.786c1.875-1.312 5.713-.488 4.829-3.382-.821-2.61-2.389 1.094-5.833-1.324-.434-.325-.624-.382.107-.788 2.013-1.083 1.412-4.061 2.29-7.3.487-1.84 1.664-3.621 3.829-2.863 1.267.444 6.143-4.26 7.228 6.049a5.5 5.5 0 0 0 1.732 3.654c.893.811.785 1.272-.325 1.7-2.709 1.069-3.789-.974-4.925.73a1.191 1.191 0 0 0 .7 1.922c1.11.325 2.247.595 3.438.893C149.764 18.592 145.505 5 134.668 5zm-55.62 161.121c-.885-.259-1.294.875-3.663 1.891 1.359 1.631 1.225 1.529 1.85 1.113a18.412 18.412 0 0 0 2.273-1.489.879.879 0 0 0-.46-1.515z"
          fill="#77d8a2"></path>
    <path d="M78.344 85.411c-2.061 0-5.474-2.746-6.2-1.164-1.056 2.23 3.112 4.794 3.275 3.492a.4.4 0 0 0-.325-.46c-1.5-.221-2.554-1.983-2.192-2.707.211-.422 3.607 1.624 5.44 1.624a.393.393 0 1 0 .002-.785zM75.827 80.7c.638 0 1.083.343 1.272-.163.321-1.284-4.256-.473-3.41.542.472.591.645-.379 2.138-.379zm-.081 1.057a.785.785 0 0 1 0 1.57.785.785 0 0 1 0-1.57z"
          fill="#000001"></path>
    <path d="M142.868 19.831a5.461 5.461 0 0 1-1.731-3.653c-1.07-10.324-5.784-5.959-7.011-6.388-2.165-.758-4.032 1.11-4.52 2.95-.819 3.021-.323 6.409-2.3 7.524-.731.406-.406.84.027 1.164 3.434 2.412 4.972-1.336 5.792 1.272.3.975.135 1.191-.893 1.651-1.218.542-2.544.515-3.654 1.435a12.264 12.264 0 0 0 6.144 1.786h.108a11.121 11.121 0 0 0 6.766-2.409l.055-.081c-1.273-.325-2.112-.514-3.3-.866a1.2 1.2 0 0 1-.7-1.922c1.174-1.761 2.081.393 4.926-.73 1.076-.464 1.181-.917.291-1.733z"
          fill="#c98bef"></path>
    <path d="M79.075 101.055a15.519 15.519 0 0 0-7.575-5.467c-1.786-.649-1.651.822-3.329 3-2.482 3.258-4.8 6.554-8.607 5.143a2.535 2.535 0 0 1-1.814-2.409c-.165-4.045 2.282-6.25 4.845-9.635A6.2 6.2 0 0 1 57.1 84.87a7.393 7.393 0 0 0-3.979 2.274 3.36 3.36 0 0 0-.893 3.9c.713 1.838 2.188 4.56 1.462 5.9-1.814 3.3-7.714 12.234-19.082 15.428a1.912 1.912 0 0 0-1.488 1.813 15.114 15.114 0 0 0 1.7 9.175 27.181 27.181 0 0 0 11.286 10.881c6.985 3.651 17.239 3.129 20.218 1.894 1.164-.487 1.462-.893 1.11-2.03-1.565-4.7-1.952-17.1 1.624-26.362.677-1.515.839-1.543 2.165-.595 2.528 1.805 2.743 1.4 3.681.487 5.448-5.335 5.228-5.117 4.171-6.58zm-14.192 16.239a23.263 23.263 0 0 1-5.495-1.137 24.773 24.773 0 0 1-11.887-8.7.816.816 0 0 1 .129-.882c.176-.152.7-.213.834-.051a23.6 23.6 0 0 0 11.34 8.526c4.374 1.482 5.555.666 5.657 1.516a.658.658 0 0 1-.578.728z"
          fill="#ffd869"></path>
    <path d="M78.293 37.285c-.069-.556.165-.487 6.854-1.239a.406.406 0 0 1 .09.807c-6.57.739-6.859 1.096-6.944.432zm8.366-3.33c-7.06-4.288-7.3-4.147-6.985-4.67.266-.442.071-.48 7.407 3.976a.406.406 0 0 1-.422.694zm3.217-2.324c-.767-.049-.259-1.035.026-6.872a.406.406 0 0 1 .811.051l-.407 6.442c-.025.397-.53.419-.43.379zm93.956-.554c-.469-.227-.386-.2 2.086-5.226a.406.406 0 0 1 .728.358c-2.453 4.998-2.307 5.109-2.814 4.868zm1.76 2.675c-.3-.458-.142-.374 4.3-3.383.987-.55 1.586-1.379 1.953-.832.3.443.163.427-5.685 4.327a.407.407 0 0 1-.568-.112zm1.33 3.689a.406.406 0 0 1 .181-.792c3.98.913 4.33.9 4.2 1.415-.133.536-.287.315-4.381-.623zM41.535 131.26c-3.687 5.268-9.134 14.507-13.776 9.527-1.184-1.285-10.233-11.481-9.473-12.748.172-.257 1.074-.231.974-.216 3.624.168 9.08 5.258 11.259 6.252.081-.1 2.741-3.812 6.253-7.714-.163-.216-.325-.46-.488-.676-6.966 8.07-5.7 7.863-6.793 6.9-1.948-1.943-10.257-7.431-11.855-5.034-.554.831.247 2.055.731 2.842a86.875 86.875 0 0 0 8.8 10.908c4.928 5.316 10.555-2.928 14.507-8.824.68-1.023.626-.545-.139-1.217zm60.113-28.175c-.954-1.667-5.092 1.53-6.171 1.651a1.734 1.734 0 0 1 .135-.46c1.285-3-1.69-3.936-2.788-1.976-.928 1.625-.6 3.215-2.544 3.085-5.954-.27-9.094-1.488-10.772-2.652a3.086 3.086 0 0 1-.514.623c2.3 1.624 6.09 2.6 11.259 2.841 2.617.131 2.479-2.19 3.275-3.491a1.237 1.237 0 0 1 1.245-.568c.492.184.343 1.345.108 1.813-.218.611-.411 1.28.379 1.543.919.306 3.779-2.084 5.684-2.084.667 1.334-5.575 2.144-4.006 3.491.727.606 2.532-.612 2.653.352 0 .971-2.751.371-2.6 1.543.137 1.093 2.32.2 2.518.731 1.972 1.953-16.252 3.617-24.9-1.6a1.709 1.709 0 0 1-.839.48c7.293 4.709 23.283 4.623 26.119 2.313a1.158 1.158 0 0 0-.622-2.137 1.394 1.394 0 0 0 1.164-1.327c-.081-.1.174-1.508-2.165-1.083.338-.126.858-.277.757-.243 1.416-.476 3.486-1.615 2.625-2.845zM60.7 136.971c-.3 0-.569.027-.867.027.772 1.8 10.384 24.829 8.986 26.227-2.336 1.557-10.962-9.8-16.347-26.795-.3-.054-.623-.136-.921-.19 2.384 7.682 9.183 23.9 15.428 27.472 6.94 3.471-1.518-13.643-6.279-26.741zm21.217-63.712c-2.443-2.672-3.647-.015-4.655-1.489-3.129-4.239-12.331-4.183-14.886 9.2-.92 4.6-3.239-.451-4.547 2.166-1.056-3.654-2.355-9.636.243-13.127.578-.578 4.712-1.6 4.087-3.952l-.027-.081c-1.135-2.127-3.733.85-2.49-.7.947-1.678 2.111-3.735.947-4.438a1.442 1.442 0 0 0-1.867.46 10.4 10.4 0 0 0-.785 1.461c-.989 1.781.1.164-1.11-.487a1.492 1.492 0 0 0-1.948.7c-.2-1.556-1.92-1.435-2.626-.081-1.028 1.488-2.706 12.693-2.652 15.752.054 2.923.839 8.336 2.382 11.394A2.981 2.981 0 0 1 52.2 88.5a33.608 33.608 0 0 1-1.786-9.879c-.054-3.3 1.759-14.264 2.517-15.265.505-.759.83-.736.947-.677.7.3-.416 2.181.027 2.68a.465.465 0 0 0 .406.162c.835-.046.819-1.8 1.516-2.436 1.636-.909.359 2.054.325 2.192-.161.642.346.883.812.65.919-.418 2.26-5.119 3.166-4.439-.029.1.786-.221-1.191 3.383-1.022 1.83-.668 1.516-.73 1.76.63 1.259 2.391-1.531 3.191-.331.342 1.536-3.3 2.462-3.924 3.167-.061.524-3.717 3.026-.163 14.642-.812 2.032.282 7.227 5.305 7.551 2.431-.374 3.786-.382 4.412-3.031 0-.184 1.913 2.38 4.736 3.167a13.114 13.114 0 0 0-1.624 3.87 1.252 1.252 0 0 1 .894-.244 12.812 12.812 0 0 1 1.569-3.464 6.133 6.133 0 0 0 4.033-.893c4.431-2.282 4.655-7.7 5.116-8.39a8.106 8.106 0 0 0 1.894-4.9 5.949 5.949 0 0 0-1.731-4.516zM66.95 74.5c1.593-2.721 5.6-3.7 5.6-2.6 0 .693-.9.161-2.327.811-2.387.964-2.286 2.64-3.14 2.355a.43.43 0 0 1-.133-.566zm13.75 7.988A.777.777 0 1 0 80.455 84a9.022 9.022 0 0 1-4.3 6.36c-4.744 2.859-8.558-2.439-9.04-2.76a3.27 3.27 0 0 0-1.407-3.465 2.394 2.394 0 0 1-.6-2.923c.726-1.579 2.353-.737 2.978-.893 2.841-.92 5.71-1.759 7.876-4.006 1.569-1.651 2.111-1.57 3.274.352a11.207 11.207 0 0 1 1.408 3.6c-.633-.095-1.424-.093-1.353.541.151.606.51.094 1.461.379a6.683 6.683 0 0 1-.052 1.303z"
          fill="#000001"></path>
    <path d="M69.223 168.908c.457 2.514.538 2.819.271 3.086-.244.216-.487.027-.6-.163-1.319-1.916-3.054-6.714-.73-6.631 2.842.158 2.681-1.886 4.114-.622a33.066 33.066 0 0 1 5.088 5.738c.926 1.361-1.015 1.6-2.436 1.245-4.145-1.145-4.53-2.743-5.707-2.653z"
          fill="#000001"></path>
    <path d="M135.723 86.44a2.414 2.414 0 1 0-2.544 0c-.6 1.272-1.38 3.248-1.38 3.248a.538.538 0 0 0 .541.541c5.326-.135 5.752 1.271 3.383-3.789z"
          fill="#c98bef"></path>
</svg>