<svg xmlns="http://www.w3.org/2000/svg" viewBox="0 0 200 200">
    <defs></defs>
    <path d="M120.629 83.812a10.44 10.44 0 0 1 .988-2.737 3.089 3.089 0 0 1 .65-.7 9.221 9.221 0 0 1-.241 3.2v.01a.426.426 0 0 0 .594.461c.232-.131.132-.3.634-1.74a7.549 7.549 0 0 1 1.259-2.425c.153-.174.547-.614.819-.532.106.03.033-.176.593 4.681a.393.393 0 0 0 .773.093c.038-.12.572-4 2-4.713.446-.224.833-.128.932.363.34 1.542-1.406 5.415-.154 7.425a.9.9 0 0 0 1.463.25c.7-.639 1.557-2.768 2.262-3 .335 1.341-1.422 8.847-1.868 9.128-2.265 1.386-6.014 1.715-8.683 1.693 0-.098-3.23-5.669-2.021-11.457zm30.946-50.782c-.79-2.263-3.7-2.924-5.647-1.911-.036.117-.061.235-.1.348.012.442-.794.471-.824.025-.636-1.544-1.739-3.91-3.346-4.4-2.064-.62-4.768 1.9-7.516 2.175-1.659.162-3.144-.8-3.638-2.953a78.83 78.83 0 0 1-8.872 7.7 11.584 11.584 0 0 0 7.124 11.128v8.141c.267-.087.532-.169.8-.241v-7.568a11.931 11.931 0 0 0 8.422-.052v7.394c.266.056.537.118.8.184v-7.91a12.352 12.352 0 0 0 6.866-8.085c3.056 2.153 7.017-.861 5.931-3.975zm-45.267 47.349c-.814.093-2.205 2.762-2.548 3.5a.4.4 0 0 1-.747-.2 20.813 20.813 0 0 0 .015-2.937c-.076-.947-.123-1.911-.788-1.217a8.465 8.465 0 0 0-2.123 4.425c-.077.446-.829.338-.788-.107a12.22 12.22 0 0 0 0-2.558c-.057-.516-.25-1.963-.767-1.883-.224.037-.513.737-.584.921-.681 1.774-.183 4.107-.588 6.037-.049.228-.021.249-.128.389a.407.407 0 0 1-.645-.087c-.053-.089-.894-2.715-.926-2.814-.273-.826-.445-1.754-1.039-1.914-.388-.1-.5.174-.547.512-.422 3.067.39 6.524 2.721 8.616a47.814 47.814 0 0 1 6.9.9c1.992-1.49 2.1-4.837 2.63-7.747.342-1.858.713-2.25.67-3.1-.068-.357-.326-.781-.718-.736z"
          fill="#ff8684"></path>
    <circle cx="136.419" cy="34.795" r="1.136" transform="rotate(-80.8 136.408 34.814)" fill="#000001"></circle>
    <path d="M123.618 32.836a1.138 1.138 0 1 0 1.238 1.028 1.142 1.142 0 0 0-1.238-1.028zM135 38.014c-3.507 2.908-7.311 2.448-9.353.455-.374-.358-.942.21-.568.568A7.317 7.317 0 0 0 132 40.582a10.173 10.173 0 0 0 3.557-2c.407-.333-.166-.896-.557-.568zm5.543-6.473a3.934 3.934 0 0 0-4.226-2.277.4.4 0 0 0 .179.778 3.152 3.152 0 0 1 3.356 1.9.405.405 0 0 0 .548.144.4.4 0 0 0 .143-.545z"
          fill="#000001"></path>
    <path d="M69.763 108.444a.41.41 0 0 1-.492.281l-7.371-1.136a.405.405 0 0 1-.281-.491c.848-4.025 6.323-29.891 6.345-29.994a.4.4 0 0 1 .388-.3l.11.015c1 .055.54.073 4.774.563a35.859 35.859 0 1 0 2.405 6.805l-.241-.027c-.289 1.349-2.688 11.574-5.637 24.284zM50.854 85.915a9.8 9.8 0 0 1-4.748 4.541c.433 7.209 3.04 21.384 4.421 28.126a.408.408 0 0 1-.389.507H33.166a.407.407 0 0 1-.389-.507c3.233-8.479 5.367-18.727 6.631-27.655-4.97-1.5-8.715-6.73-7.741-11.8a9.413 9.413 0 0 1 7.552-7.266c8.549-1.443 15.13 6.857 11.635 14.054z"
          fill="#3859ff"></path>
    <path d="M176.646 121.936c-5.861-6.486-11.861 4.165-21.147 2.758-7.133-1.08-6.038-8.248-6.3-13.6a17.968 17.968 0 0 1-9.461-3.94c-4.217 1.265-8.972 1-12.393-1a13.952 13.952 0 0 1-4.8-4.937c-.752.025-1.489.051-2.216.061a.436.436 0 0 1-.378.43 54.078 54.078 0 0 1-9.732.008c-4.853 21.653-8.179 46.678-8.227 67.93A7.3 7.3 0 0 0 116.474 171l10.426-55.577c5.731 16.6 18.323 23.326 18.323 23.326 15.948 6.928 26.657-2.42 31.589-8.539a6.356 6.356 0 0 0-.166-8.274zm-28.341-20.456a15.92 15.92 0 0 1-1.805 1.92 13.151 13.151 0 0 0 2.236.954 36.264 36.264 0 0 0-.431-2.874z"
          fill="#3859ff"></path>
    <path d="M137.985 45.55c0-.2.059-.136-.291-.025.096.01.194.02.291.025zM121.63 34.018c-3.054 2.194-7.942 5.187-9.433 1.686a8.933 8.933 0 0 1-.522-4.081c-1.427 1.683-6.175 8.913 14 12.336.441.077.865.143 1.3.21a11.361 11.361 0 0 1-5.345-10.151zm22.87-13.897c2.435 3.131 2.519 7.629 1.43 11 2.434-1.265 5.826.134 5.826 3.006a3.868 3.868 0 0 1-6.1 2.88 12.363 12.363 0 0 1-6.866 8.085v.527c12.817.89 17.463-1.581 17.975-4.927.642-4.254-1.184-23.257-12.265-20.571z"
          fill="#9a55c7"></path>
    <path d="M145.34 30.27c.88-3.4.612-7.174-1.689-9.916-1.805-2.163-4.591-3.2-7.362-3.71-5.862-1.07-10.88 1.131-14.639 5.848-2.007 2.515-2.783 4.7-3.5 5.618-1.9 2.4-4.67 1.62-5.523 3.14-.487.917-.083 3.257.292 4.139 1.913 4.638 14.019-6.567 17.554-10.208a.408.408 0 0 1 .687.281 2.521 2.521 0 0 0 .045.384c.811 4.953 5.492 1.506 8.146.624 3.036-.97 4.677.856 5.989 3.8zm-74.326 4.868c-18.078-1.584-42.187-.8-60.218.2a3.919 3.919 0 0 0-3.489 2.711 6.086 6.086 0 0 0-.174 1.878c0 10.093-.014 9.011 0 10.341a3.9 3.9 0 0 0 2.185 3.489c1.366.65 2.9.272 4.344.133 18.832-1.76 44.787-1.284 57.674-1.135a3.905 3.905 0 0 0 3.628-2.3c.411-.928.332-1.7.332-4.855 0-6.622.128-7.2-.43-8.3-.787-1.614-2.076-2-3.852-2.162zm3.4 14.5a3.112 3.112 0 0 1-3.157 2.308C25.8 51.1 11.566 53.455 10.576 53.307a3.1 3.1 0 0 1-2.624-3.039c0-.1-.013-11.129.015-11.4a3.1 3.1 0 0 1 2.85-2.732c17.013-1.017 41.823-1.688 58.877-.3 1.494.117 3.167.041 4.18 1.351.969 1.241.656 11.981.537 12.446z"
          fill="#9a55c7"></path>
    <path d="M20.093 44.4c-.89-.042-1.78-.123-2.666-.225.507-.563.993-1.141 1.453-1.745a.4.4 0 0 0-.69-.4c-.379.5-.778.972-1.192 1.438l-.2-2.369c-.041-.512-.844-.517-.8 0 .061.716.117 1.438.179 2.154-.374-.4-.752-.8-1.126-1.208-.353-.378-.921.19-.568.568.415.445.829.885 1.238 1.331-.629-.1-1.253-.215-1.877-.348-.5-.108-.717.665-.215.772.711.154 1.427.277 2.144.389a27.707 27.707 0 0 1-1.607 1.494.4.4 0 1 0 .568.568c.558-.476 1.1-.982 1.612-1.5l.107 1.31c.041.511.844.517.8 0-.03-.379-.061-.758-.1-1.136l1.075 1.151c.353.379.921-.189.568-.568-.328-.348-.65-.7-.978-1.049.752.077 1.5.144 2.262.179.53.022.53-.782.013-.806zm11.175 0a39.642 39.642 0 0 1-2.666-.225c.507-.563.993-1.141 1.453-1.745a.4.4 0 0 0-.69-.4c-.379.5-.778.972-1.193 1.438l-.2-2.369c-.041-.512-.844-.517-.8 0 .061.716.117 1.438.179 2.154-.374-.4-.753-.8-1.126-1.208-.353-.378-.921.19-.568.568.414.445.829.885 1.238 1.331-.629-.1-1.253-.215-1.878-.348-.5-.108-.716.665-.214.772.711.154 1.427.277 2.143.389a27.367 27.367 0 0 1-1.606 1.494.4.4 0 0 0 .568.568c.557-.476 1.09-.982 1.611-1.5l.108 1.31c.041.511.844.517.8 0-.03-.379-.061-.758-.1-1.136l1.074 1.151c.354.379.921-.189.568-.568-.327-.348-.649-.7-.977-1.049.752.077 1.5.144 2.262.179.531.022.531-.782.014-.806zm12.09 0c-.89-.042-1.78-.123-2.665-.225.506-.563.992-1.141 1.453-1.745a.4.4 0 0 0-.691-.4c-.379.5-.778.972-1.192 1.438l-.2-2.369c-.041-.512-.844-.517-.8 0 .061.716.118 1.438.179 2.154-.373-.4-.752-.8-1.126-1.208-.353-.378-.921.19-.567.568.414.445.828.885 1.238 1.331a36.26 36.26 0 0 1-1.878-.348c-.5-.108-.716.665-.215.772.711.154 1.428.277 2.144.389a27.707 27.707 0 0 1-1.607 1.494.4.4 0 0 0 .568.568c.558-.476 1.09-.982 1.612-1.5l.107 1.31c.041.511.845.517.8 0-.031-.379-.062-.758-.1-1.136l1.082 1.142c.353.379.921-.189.568-.568-.328-.348-.65-.7-.977-1.049.752.077 1.5.144 2.261.179.523.031.523-.773.006-.797zm11.542 0c-.89-.043-1.78-.123-2.665-.225.506-.563.992-1.141 1.453-1.745a.4.4 0 0 0-.691-.4c-.379.5-.778.972-1.192 1.438l-.2-2.369c-.041-.512-.844-.517-.8 0 .061.716.118 1.438.179 2.154-.374-.4-.752-.8-1.126-1.208-.353-.378-.921.19-.568.568.415.445.829.885 1.239 1.331a36.26 36.26 0 0 1-1.878-.348c-.5-.108-.717.665-.215.772.711.154 1.427.277 2.144.389a27.707 27.707 0 0 1-1.607 1.494.4.4 0 0 0 .568.568 27.555 27.555 0 0 0 1.612-1.5l.107 1.31c.041.511.844.517.8 0-.031-.379-.062-.758-.1-1.136l1.075 1.151c.353.379.921-.189.568-.568-.328-.348-.65-.7-.978-1.049.753.077 1.5.144 2.262.179.526.022.521-.782.013-.806zm11.529 0c-.89-.042-1.78-.123-2.666-.225.507-.563.993-1.141 1.454-1.745a.4.4 0 0 0-.691-.4c-.379.5-.778.972-1.192 1.438l-.2-2.369c-.041-.512-.844-.517-.8 0 .061.716.117 1.438.179 2.154-.374-.4-.752-.8-1.126-1.208-.353-.378-.921.19-.568.568.415.445.829.885 1.238 1.331-.629-.1-1.253-.215-1.877-.348-.5-.108-.717.665-.215.772.711.154 1.427.277 2.144.389a27.707 27.707 0 0 1-1.607 1.494.4.4 0 0 0 .568.568c.558-.476 1.09-.982 1.612-1.5l.107 1.31c.041.511.844.517.8 0-.03-.379-.061-.758-.1-1.136l1.075 1.151c.353.379.921-.189.568-.568-.328-.348-.65-.7-.978-1.049.753.077 1.505.144 2.262.179.53.022.53-.782.013-.806z"
          fill="#9a55c7"></path>
    <path d="M120.016 82.943a7.712 7.712 0 0 1 .915-2.293c.317-.455.9-1.248 1.546-1.09.46.113.582.62.623 1.039a4.55 4.55 0 0 1 1.305-1.7 1.18 1.18 0 0 1 1.459-.133c.347.292.321.508.578 2.825 1.223-3.991 3.75-3.514 4-1.822.169 1.2-.293 2.427-.533 4.344l2.181.261c.339-.4.894-.842 1.4-.691a17.3 17.3 0 0 1 5.8-7.869 85.2 85.2 0 0 1-2.113-9.287c-.074-.531.722-.689.772-.215a82.582 82.582 0 0 0 2.026 9.011A19.921 19.921 0 0 1 150.874 72c-2.281-9.982-5.963-13.66-6.223-14.178-.311-.4.252-.972.569-.568A36.64 36.64 0 0 1 151.707 72a23.474 23.474 0 0 1 3.383.317c-2.129-9.368-6.9-17.019-16.3-19.335a17.512 17.512 0 0 0-16.5 4.139c-6.865 6.534-10.639 15.514-13.488 24.478 3.707.444 1.727.213 11.214 1.344zm.229 12.714a.4.4 0 0 1 .39-.506c.363.035.726.061 1.09.081A23.555 23.555 0 0 1 120 90.259c-.985-.135-8.335-1.135-13.191-1.8q-.283 1.066-.552 2.134a.38.38 0 0 1 .291.481 75.347 75.347 0 0 0-2 9.225c.367 0 9.238 1.433 15.4.614a.324.324 0 0 1 .378.373c.722-.014 1.464-.035 2.216-.061a21.07 21.07 0 0 1-2.297-5.568zm20.687-6.789a26.643 26.643 0 0 0-.015-4.733 12.048 12.048 0 0 0-1.633 10.307c1.328-1.294 1.509-3.737 1.648-5.574zm15.181-10.183a13.124 13.124 0 0 0-3.349-.447c.717 5.856.624 12.31-1.45 17.834a51.236 51.236 0 0 0 4.87-2.134c1.216-.604.071-13.878-.071-15.253z"
          fill="#ffd869"></path>
    <path d="M132.531 94.511c-1.221-.718.3-.316-3.014.706a23.142 23.142 0 0 1-8.345.778c1.968 6.89 6.472 11.376 13.907 11.123a17.291 17.291 0 0 0 3.924-.6 20.586 20.586 0 0 1-6.472-12.007zm19.437-16.26a13.972 13.972 0 0 0-10.35 4.947 27.812 27.812 0 0 1 0 7.02c-.194 1.865-.6 3.88-2.062 5.056a15.142 15.142 0 0 0 6.206 7.695c6.568-5.726 7.29-16.03 6.206-24.718zm-47.962 22.774a.4.4 0 0 1-.3-.389 65.585 65.585 0 0 1 1.489-7.552c-2.618-.595-8.5-1.575-11.195-1.152.017.172.1.663.081.563.993 5.707 4.2 10.315 9.881 11.318a25.149 25.149 0 0 0 4.425.184 6.512 6.512 0 0 0 1.438-.5c.128-.589.262-1.19.394-1.783-1.961-.144-4.277-.424-6.213-.689z"
          fill="#ffd869"></path>
    <path d="M111.8 179.621a46.355 46.355 0 0 0-19.8.979c-1.475.4-3.351.991-2.6 2.436.6 1.156 2.518.836 7.7.966l13.067.328a10.768 10.768 0 0 0 3.173-.072c.937-.271 1.233-.982 1.382-1.882.324-1.835-1.071-2.445-2.922-2.755zm82.56-49.637c-1.3-1.527-2.784-2.931-4.17-4.384-11.272-11.848-10.567-11.257-11.3-11.666-1.341-.739-3.228.566-3.239 2.154a3.894 3.894 0 0 0 1.044 2.221 46.371 46.371 0 0 0 14.7 13.308 5.152 5.152 0 0 0 2.3.957c1.085.009 1.936-1.098.665-2.59zM112.2 35.7c2.393 5.6 13.995-5.1 18.305-9.39.491 2.146 1.968 3.116 3.638 2.953 2.8-.271 5.4-2.808 7.516-2.175 1.608.49 2.708 2.853 3.346 4.4.019.444.837.417.824-.025a14.778 14.778 0 0 0 .755-4.04 10.784 10.784 0 0 0-2.329-7.639c-2.538-2.968-7.376-4.3-11.24-4.2-4.832.128-9.665 2.632-13.3 8.238-1.339 2.072-1.559 3.032-2.225 3.848-2.2 2.649-6.357.769-5.838 5.536a8.711 8.711 0 0 0 .548 2.494zm5.958-7.594c.778-.989 1.435-3.05 3.5-5.618 3.771-4.713 8.739-6.91 14.639-5.848 2.783.506 5.555 1.547 7.362 3.71 2.309 2.751 2.566 6.533 1.689 9.916-.751-1.686-1.877-3.605-3.684-3.986-1.968-.418-3.827.972-6.045 1.788s-3.767.4-4.319-1.9a3.677 3.677 0 0 1-.113-.7.4.4 0 0 0-.685-.282c-2.933 3.019-14.487 13.893-17.223 10.755a5.838 5.838 0 0 1-.823-2.855c-.397-4.133 3.218-1.84 5.699-4.976zM151.7 72.013a36.641 36.641 0 0 0-6.488-14.746c-.318-.4-.88.164-.568.568a.161.161 0 0 1 .02.031 35.722 35.722 0 0 1 6.2 14.147 19.946 19.946 0 0 0-10.9 3.316c-2.411-9.249-1.848-8.983-2.144-9.225a.434.434 0 0 0-.655.43 85.207 85.207 0 0 0 2.113 9.286 17.3 17.3 0 0 0-5.8 7.869 1.241 1.241 0 0 0-1.049.333 3.513 3.513 0 0 0-.353.358l-2.179-.261c.241-1.91.692-3.157.532-4.344-.233-1.692-2.741-2.172-4 1.822-.249-2.224-.222-2.526-.578-2.825a1.18 1.18 0 0 0-1.459.133 4.537 4.537 0 0 0-1.3 1.7c-.041-.419-.165-.921-.625-1.038-.649-.164-1.228.629-1.545 1.089a7.767 7.767 0 0 0-.916 2.293L107.787 81.5a1.778 1.778 0 0 0-.845-1.781c-1.022-.516-1.893.431-2.527 1.376-.2-.025-.389-.046-.583-.071a4.54 4.54 0 0 0-.43-2.149.969.969 0 0 0-1.151-.338c-.652.251-1.456 1.477-1.8 2.077-.149-.015-.3-.035-.446-.051a.157.157 0 0 1-.005-.051c-.117-.732-.43-1.8-1.31-1.908-.849-.108-1.32.895-1.555 1.616-.2-.023-29.112-3.453-28.784-3.412a.4.4 0 0 0-.388.3c-2.329 11.004-5.334 25.192-6.346 29.992a.4.4 0 0 0 .281.491l7.373 1.136a.408.408 0 0 0 .492-.281c.638-2.752 5.524-23.7 5.656-24.284.712.095 9.509 1.3 9.609 1.315l-2.538 18.952c-.03.23.21.384.4.4l6.652.66a.4.4 0 0 0 .389-.3c1.747-11.237 2.868-18.436 2.9-18.65.21.031.419.057.629.087a9.495 9.495 0 0 0 2.17 4.39 10.071 10.071 0 0 0-2.154.195.412.412 0 0 0-.3.389 16.425 16.425 0 0 0 1.187 4.835c2.315 5.8 7 8.932 13.845 8.325a.421.421 0 0 0 .2-.768c-.364-.164-3.352.508-6.739-.829-3.315-1.317-6.3-4.518-7.434-9.972-.108-.5-.187-1.014-.215-1.264 2.8-.439 8.4.559 11.195 1.151a65.359 65.359 0 0 0-1.489 7.553.409.409 0 0 0 .3.388c4.6.672 11.474 1.253 15.959.686.492-.06.519-.863 0-.8-5.931.79-15.286-.614-15.391-.614a48.283 48.283 0 0 1 1.4-6.959c.132-.528.565-2.189.588-2.266a.4.4 0 0 0-.772-.215c-.134.481-.256.967-.384 1.453-.241-.051-.486-.1-.727-.159a7.842 7.842 0 0 0 1.745-3.75c.163.025 12.769 1.749 13.6 1.857a23.454 23.454 0 0 0 1.724 4.973c-.363-.02-.726-.046-1.09-.082a.408.408 0 0 0-.389.507 20.967 20.967 0 0 0 2.057 5.137c2.455 4.312 5.7 6.323 9.727 6.943a17.65 17.65 0 0 0 7.721-.583c9.53 7.662 22.9 3.683 29.078-6.171 8.209-13.133-1.399-28.676-17.172-28.963zm9.091 35.643c-12.934 7.571-27.212-1.456-27.767-16.061a.5.5 0 0 0-.123-.287c.375-1.463 1.309-5.266 1.126-6.754 4.109-12.842 21.136-15.154 30.786-6.963 9.787 8.29 7.496 23.324-4.019 30.065zm-37.33-6.478A19.4 19.4 0 0 1 121.182 96a23.1 23.1 0 0 0 8.345-.778c3.3-1.037 1.811-1.426 3.014-.706a20.644 20.644 0 0 0 6.472 12.019 17.25 17.25 0 0 1-3.924.6c-5.34.18-9.113-1.989-11.625-5.957zm-2.835-17.366a10.44 10.44 0 0 1 .988-2.737 3.089 3.089 0 0 1 .65-.7 9.221 9.221 0 0 1-.241 3.2v.01a.426.426 0 0 0 .594.461c.232-.131.132-.3.634-1.74a7.549 7.549 0 0 1 1.259-2.425c.153-.174.547-.614.819-.532.106.03.033-.176.593 4.681a.393.393 0 0 0 .773.093c.038-.12.572-4 2-4.713.446-.224.833-.128.932.363.34 1.542-1.406 5.415-.154 7.425a.9.9 0 0 0 1.463.25c.7-.639 1.557-2.768 2.262-3 .335 1.341-1.422 8.847-1.868 9.128-2.265 1.386-6.014 1.715-8.683 1.693.003-.098-3.227-5.669-2.018-11.457zm-14.06 3.812a37.956 37.956 0 0 1 1.069-5.347c.109.013 7.506.888 12.188 1.448a15.24 15.24 0 0 0 .01 5.716c-.007-.002-2.487-.331-13.264-1.817zm-2.876 4.329a47.8 47.8 0 0 0-6.9-.9 8.755 8.755 0 0 1-2.63-4.927 13.069 13.069 0 0 1-.092-3.689c.046-.338.159-.614.548-.512.726.2.75 1.267 1.929 4.656a.411.411 0 0 0 .68.159c.1-.1.1-.242.128-.389.41-1.923-.087-4.3.588-6.037.075-.194.363-.885.584-.921.332-.052.547.624.6.849a11.479 11.479 0 0 1 .174 3.592c-.041.445.712.552.788.107a8.467 8.467 0 0 1 2.123-4.426c.669-.681.714.265.789 1.218a20.216 20.216 0 0 1-.016 2.937.4.4 0 0 0 .747.2 15.649 15.649 0 0 1 1.561-2.656c.1-.1.478-.786.987-.849.4-.046.655.378.7.721.041.811-.324 1.24-.671 3.1-.494 2.696-.581 6.284-2.614 7.767zM92.6 85.711c-.195-.026-.456.046-.492.281-2.111 13.58-2.8 18.023-2.9 18.665l-5.868-.583 2.537-18.937a.4.4 0 0 0-.3-.388l-10.363-1.418a.4.4 0 0 0-.491.282 46877.42 46877.42 0 0 1-5.654 24.273q-3.293-.507-6.585-1.018c.54-2.551 5.892-27.849 6.186-29.226.575.067 25.528 3.026 28.27 3.356a23.977 23.977 0 0 0-.174 3.648c-.589-1.794-.707-2.538-1.259-3.1a1.351 1.351 0 0 0-1.832-.159c-.532.5-.465 1.509-.491 2.18a12.366 12.366 0 0 0 .123 2.225 56.636 56.636 0 0 1-.707-.081zm38.947-.589a7.853 7.853 0 0 1-1.264 1.832 2.9 2.9 0 0 1-.455-2.047c.339.041 1.484.184 1.72.215zm-1.259 1.842zm2.884-2.567z"
          fill="#000001"></path>
    <path d="M141.121 82.528a13.011 13.011 0 0 0-2.563 12.3c.006.024-.039-.115.3.88 2.188 5.994 7.9 10 13.509 10.07 9.222.129 15.13-8.946 13.385-17.75-2.361-12.069-17.652-13.747-24.631-5.5zm23.946 10.914c-1.524 9.615-10.724 14.159-18.568 9.954 6.568-5.854 7.331-16.452 6.265-25.158 8.627.139 13.572 7.197 12.303 15.204zm-25.516 1.826c1.464-1.179 1.867-3.184 2.062-5.055a27.583 27.583 0 0 0-.006-7.02 13.98 13.98 0 0 1 10.351-4.948c1.074 8.628.335 19.037-6.216 24.714a15.05 15.05 0 0 1-6.191-7.691zm1.366-11.133a28.444 28.444 0 0 1-.43 8 4.978 4.978 0 0 1-1.2 2.31 12.041 12.041 0 0 1 1.63-10.31zM45.093 72.459c-8.586-3.175-15.53 4.219-13.053 11.384a11.487 11.487 0 0 0 7.368 7.084c-1.27 8.973-3.408 19.194-6.631 27.655a.4.4 0 0 0 .389.507h16.972a.408.408 0 0 0 .389-.507c-1.332-6.5-3.986-20.895-4.421-28.126 8.231-3.798 7.216-14.956-1.013-17.997zm.394 17.406a.4.4 0 0 0-.2.348c.4 7.153 3.026 21.559 4.37 28.08H33.749c3.113-8.3 5.293-18.728 6.5-27.537a.406.406 0 0 0-.281-.492c-6.026-1.6-9.875-8.783-6.186-14.024 4.522-6.425 15.009-4 16.921 3.3a8.712 8.712 0 0 1-5.216 10.325z"
          fill="#000001"></path>
</svg>