<svg xmlns="http://www.w3.org/2000/svg" viewBox="0 0 200 200">
    <defs></defs>
    <path d="M194.177 149.441a5.5 5.5 0 0 0-5.708-4.58c-8.855.487-27.084 1-36.409 1.624a6.261 6.261 0 0 0-5.857 6.24c.023 7.468 1.416 18.212 4.617 24.752a23.039 23.039 0 0 0 12.672 10.594 38.771 38.771 0 0 0 16.671 1.783c7.175-.625 11.309-2.929 13.324-14.321 1.521-8.606 2.134-17.511.69-26.092zm-2.661 11.08c-.084.387-.677.222-.593-.163a13.2 13.2 0 0 0-1.614-9.6.308.308 0 0 1 .531-.31 13.823 13.823 0 0 1 1.676 10.073z"
          fill="#dcbeff"></path>
    <path d="M103.966 98.13a20.262 20.262 0 0 0-6.784-.855c-.5-.017-1-.079-1.491-.119-3.373 3.09-8.687 3.235-12.678 1.19-.687-.357-.779-.325-.843-.947-5.947 1.513-10.93 5.247-13.081 10.838a86.494 86.494 0 0 0-3.248 11.772C65.4 122 64.3 127.4 64.3 127.4a28.9 28.9 0 0 0 4.48.616 25.336 25.336 0 0 1 .088-18.881c.139-.342.7-.192.561.154-2.655 6.53-2.288 13.933-.007 18.778a71.773 71.773 0 0 0 24.667-2.1c-5.548-1.85-8.819-6.077-9.3-10.964-.031-.373.55-.37.581 0 .417 4.713 4.034 9.218 9.725 10.664 4.944-1.525 10.272-4 13.244-8.232a3.378 3.378 0 0 0 .483-1.541c-5.122-5.204-7.093-10.07-4.856-17.764zM88 115.118c-.2.766-.435 1.523-.652 2.285a.291.291 0 0 1-.56-.155l.652-2.284a.291.291 0 0 1 .56.154z"
          fill="#bef8d4"></path>
    <path d="M103.507 83.06c-.54-3.239-.977-6.516-2.4-9.517a10.731 10.731 0 0 0-8.376-6.408c-8.322-1.167-16 3.362-19.971 10.652a39.976 39.976 0 0 0-3.389 8.588c-2.457 7.11-9.358 22.37-10.887 29.522-.447 2.387-.407 5.494.752 7.674a9.736 9.736 0 0 0 4.513 3.634 152.245 152.245 0 0 1 4.319-17.79c2.047-6.646 7.321-10.9 14.064-12.62-.258-9.643.18-7.289-.515-8.793-4.528 1.059-5.394-3.667-2.929-4.776a2.972 2.972 0 0 1 2.108.21c.064-10.005 16.632-11.8 18.12-1.083a2.545 2.545 0 0 1 2.584.2 2.509 2.509 0 0 1 .006 3.522 9.171 9.171 0 0 1-3.594 1.454 9.663 9.663 0 0 1-1.434 1.918l-.529 7.15c2.4.187 4.541-.169 8.19.978a22.56 22.56 0 0 1 1.548-3.686c.119-.221-1.747-8.226-2.18-10.829zm-23.356-9.006a10.363 10.363 0 0 0-4.622 5.112c-.149.361-.744.2-.593-.164a11.013 11.013 0 0 1 4.9-5.478c.353-.189.664.342.315.53z"
          fill="#bef8d4"></path>
    <path d="M63.694 142.615c-1.455-4.872-.405-10.267.607-15.218 1.672-8.174 2.535-12.789 4.788-19.16C71.277 102.554 76.19 99 82.17 97.4c-.022-.2-.031-.4-.037-.6-6.71 1.713-12 5.937-14.064 12.62a175.1 175.1 0 0 0-4.426 18.319c-1.558 7.657-2.549 15.191 2.9 20.889a21.2 21.2 0 0 0 9.313 5.494c.015-.2.033-.41.05-.614-5.474-1.708-10.515-5.208-12.212-10.893zm72.022-9.957c-4.293 6.219-14.752 7.417-19.922 1.874a.293.293 0 0 0-.485.129c-1.445 6.759 1.939 15.009-16.47 18.44-7.419 1.509-14.989 2.686-22.317.592q-.026.3-.046.594c7.642 2.12 15.7.793 23.315-.79 3.728-.774 7.573-1.735 10.659-4.08 5.641-4.165 4.49-9.4 5.333-14.092 5.405 5.334 16.137 4.124 20.651-2.67-.172.193-.423.07-.718.003zm-8.7-8.013a.314.314 0 0 1 .132-.334 1.488 1.488 0 0 1-1.347-.532c-.124.156-.251.31-.376.464a2.317 2.317 0 0 0 1.665.68zM95.95 96.6c-.036.436.009.307-.259.556.5.04 1 .1 1.491.119a19.15 19.15 0 0 1 6.784.855c.054-.185.116-.368.174-.552-3.652-1.148-5.417-.762-8.19-.978z"
          fill="#ffa850"></path>
    <path d="M82.637 89.582c.077 2.648-.027 5.3.18 7.945 3.808 2.244 9.323 2.17 12.514-.864l.486-6.575c-3.845 3.352-9.834 3.297-13.18-.506z"
          fill="#ffd2d2"></path>
    <path d="M99.79 86.341c1.806-.461 2.357-2.27 1.276-3.35a1.987 1.987 0 0 0-2.24.131c-.2.156-.445-.063-.462-.265-.873-10.317-17.192-9-16.973 1.045a.311.311 0 0 1-.317.3c-.19 0-1.761-1.02-2.643-.066a1.964 1.964 0 0 0-.241 2.239c.728 1.368 2.2 1.25 3.512.983a.308.308 0 0 1 .347.141c2.612 5.737 11.19 5.851 14.924.394.844-1.243.129-.737 1.7-1.181.375-.104.75-.227 1.117-.371z"
          fill="#ffd2d2"></path>
    <path d="M101.5 82.556a2.545 2.545 0 0 0-2.584-.2c-1.487-10.674-18.056-8.93-18.12 1.083a2.982 2.982 0 0 0-2.108-.21c-2.437 1.1-1.627 5.838 2.929 4.776a7.147 7.147 0 0 0 .374.7c.1 2.227.023 7.976.223 9.01.18.908 8.212 4.265 13.476-.558.333-.305.169.678.788-7.706a9.692 9.692 0 0 0 1.434-1.918 9.159 9.159 0 0 0 3.594-1.454 2.509 2.509 0 0 0-.006-3.523zm-6.17 14.107c-3.179 3.023-8.7 3.117-12.514.864-.207-2.644-.1-5.3-.18-7.945a9.412 9.412 0 0 0 13.18.506zm4.46-10.322c-.367.144-.742.267-1.121.376-.332.094-.712.128-1.032.25-.184.069-.242.251-.334.41-3.552 6.035-12.587 5.986-15.254.127a.311.311 0 0 0-.347-.141c-1.31.267-2.784.385-3.512-.983a1.963 1.963 0 0 1 .241-2.239c.658-.711 1.749-.35 2.5.027a.311.311 0 0 0 .462-.266c-.219-10.05 16.1-11.379 16.973-1.045.018.2.26.422.462.265a1.987 1.987 0 0 1 2.24-.131c1.072 1.073.539 2.885-1.278 3.35z"
          fill="#000001"></path>
    <path d="M142.968 96.2c-1.062-4.9-6.368-10.82-14.953-12.784.065-5.848-.37-11.688-.663-17.526 7.662-1.515 10.52-1.7 12.369-4.02a3.7 3.7 0 0 0-.067-4.774c-2.581-2.9-7.751-1.459-13.287-1.128a17.661 17.661 0 0 1-.165-3.726c2-.244 4.009.144 6-.2 4.726-.823 6.125-4.419 4.5-6.864-1.739-1.993-6.345-3.647-10.735-2.688a22.252 22.252 0 0 0-.235-2.537c2.054-.358 4.708-1.653 5.766-3.71 1.5-2.919-.855-6.759-6.782-6.692-.014-2.154-.2-4.543-2.1-5.9-1.828-1.377-4.008-.276-5.358 1.5-2.464 3.245-2.791 9.53-2.617 13.615.258 9.764 1.393 40.079 1.651 45.472-11.514 4.626-15.335 18.217-12.083 25.334a25.935 25.935 0 0 0 8.131 9.293c-1.522-2.663-.749-3.854.278-3.735.908.106 1.356 1.058 2.163 1.391a3.206 3.206 0 0 0 2.55-.125c1.826-.844 2.675-2.776 3.524-4.47a6.957 6.957 0 0 1 1.578-2.418 1.315 1.315 0 0 1 2.062.424c.72 1.65.013 2.695.458 1.828.941-2.316 3.3-3.038 3.571-1.481a6.386 6.386 0 0 1 .054 1.64c.769-1.293 2.306-3.027 3.387-1.987a2.207 2.207 0 0 1 .45 1.7c-.378 2.78-2.285 6.014-3.843 8.351q1.155-.33 2.273-.771c2.828-4.958 2.629-4.952 3.479-5.361a1.323 1.323 0 0 1 1.768 1.261c.008.1.018.77-.006 1.132.089-.072.182-.141.268-.215.251-.447.511-.886.8-1.305a1.669 1.669 0 0 1 1.313-.866c3.352-4.188 5.803-11.65 4.501-17.658zm-28-5.125a11.781 11.781 0 0 0-5.14 3.551c-.08.1-1.1 1.338-.822 1.444.366.139.206.734-.164.592-1.55-.593 1.026-3.033 1.556-3.526a12.523 12.523 0 0 1 4.407-2.653c.376-.137.535.458.165.587zm9.469-58.534a3.9 3.9 0 0 1 4.042 2.737.308.308 0 0 1-.593.163 3.311 3.311 0 0 0-3.449-2.285c-.392.033-.388-.586.002-.62zm2.8 69.849a3.807 3.807 0 0 1-1.659 1.289c-1.32.548-2.914.955-4.182.075-2.208-1.739-.334-5.457 2.542-4.9a5.688 5.688 0 0 1 2.973 1.644 1.491 1.491 0 0 1 .323 1.887z"
          fill="#ffd869"></path>
    <path d="M85.374 115c-.031-.37-.612-.373-.581 0 .737 7.528 8.172 13.015 17.41 11.488a15.089 15.089 0 0 0 4.85 10.169 47.471 47.471 0 0 1-14.026 3.005c-9.4.568-19.571-2.917-23.6-11.593-2.244-4.77-2.686-12.152.007-18.778.14-.346-.422-.5-.561-.154a25.438 25.438 0 0 0-.121 18.81c3.663 8.546 13.391 12.476 22.552 12.34a46.839 46.839 0 0 0 16.391-3.243c.183-.069.312-.333.128-.485a14.474 14.474 0 0 1-5.056-10.4.3.3 0 0 0-.367-.279C93.37 127.518 86 122.1 85.374 115z"
          fill="#ffa850"></path>
    <path d="M93.986 85.691c-.275-.641-2.052 1.327-6.784.987-1.074-.132.941 3.216 4.161 2.629 1.576-.4 2.315-1.906 2.674-3.362a.293.293 0 0 0-.051-.254zm-8.686-.718v.455a.308.308 0 0 0 .615 0v-.455a.308.308 0 0 0-.615 0zm10.854-1.214v-.607a.308.308 0 0 0-.615 0v.607a.308.308 0 0 0 .615 0zm-12.239-1.343a1.79 1.79 0 0 1 1.69-1.251.308.308 0 0 0 0-.615 2.424 2.424 0 0 0-2.283 1.7c-.122.381.478.543.593.166z"
          fill="#000001"></path>
    <path d="M131.295 113.612c1.031-2.563.475-4.676-1.431-2.44-1.619 1.915-1.308 3.031-1.9 2.845-.546-.174.167-.753-.015-3.38-.028-.361-.1-.641-.512-.574-1.544.253-2.572 3.306-3.029 4.807a.307.307 0 0 1-.592-.164 13.562 13.562 0 0 0 .375-2.637c.033-.653.111-1.817-.553-2.214-1.786-1.07-2.459 5.877-6.482 7.266a3.561 3.561 0 0 1-3.273-.409c-.281-.2-1.054-1.13-1.511-.959a.57.57 0 0 0-.3.469 3.069 3.069 0 0 0 .322 1.367c.869 2.19 1.971 2.415 1.544 2.852-3.148 2.712-6.179 4.782-10.187 5.555a14.149 14.149 0 0 0 4.7 9.761 42.293 42.293 0 0 0 9.482-4.855c5.372-4.202 11.13-11.615 13.362-17.29z"
          fill="#ffd2d2"></path>
    <path d="M132.412 111.625a2.151 2.151 0 0 0-.45-1.7c-1.08-1.041-2.618.694-3.387 1.987a6.977 6.977 0 0 0-.054-1.64c-.188-.964-1.093-.952-1.827-.606a4.836 4.836 0 0 0-1.892 2.4 4.107 4.107 0 0 0-.31-2.145 1.315 1.315 0 0 0-2.062-.424 6.948 6.948 0 0 0-1.578 2.418c-.849 1.695-1.7 3.626-3.524 4.47a3.206 3.206 0 0 1-2.55.125c-.807-.334-1.258-1.262-2.163-1.391-1.165-.1-1.407 1.316-.915 2.36a8.419 8.419 0 0 0 1.58 2.7c-7.208 6.163-10.158 4.646-10.163 5.572a14.719 14.719 0 0 0 5.054 10.573.308.308 0 0 0 .3.079 47.844 47.844 0 0 0 9.16-4.522c5.927-4.357 14.176-14.821 14.781-20.256zm-14.48 19.275a42.277 42.277 0 0 1-9.482 4.855 14.145 14.145 0 0 1-4.7-9.761c4.011-.774 7.048-2.85 10.187-5.555.428-.439-.668-.641-1.544-2.852a3.062 3.062 0 0 1-.322-1.367.573.573 0 0 1 .3-.469c.458-.169 1.233.756 1.511.959a3.565 3.565 0 0 0 3.273.409c4-1.378 4.7-8.33 6.482-7.266.663.4.586 1.561.553 2.214a13.5 13.5 0 0 1-.375 2.637.307.307 0 0 0 .592.164c.458-1.5 1.483-4.553 3.029-4.807.408-.067.484.213.512.574a11.42 11.42 0 0 1-.193 3.015.308.308 0 0 0 .593.164 8.469 8.469 0 0 1 1.516-2.644c.311-.364 1.132-1.321 1.663-.809 1.915 2.049-5.707 14.364-13.595 20.539zM93.586 80.09c-.356.172-.045.7.31.53a1.89 1.89 0 0 1 2.345.638c.225.323.758.015.531-.31a2.519 2.519 0 0 0-3.186-.858z"
          fill="#000001"></path>
    <path d="M62.976 163.952a.274.274 0 0 0-.284-.223 2.344 2.344 0 0 1-1.837-.786c-.5-.612-.409-1.513-.642-2.235a4.786 4.786 0 0 0-2.681-2.912c-.874-.488-.272.206-4.308 2.063-8.2 3.862-2.4 1.127-8.843 4.308-8.75-11.623-24.93-7.476-27.961 5.056a16.365 16.365 0 0 0 12 20.037 15.644 15.644 0 0 0 19.3-17.4c14.758-7.815 15.491-7.329 15.262-7.888zm-33.534 9.853c.437-2.14 2.788-2.179 4.07-1.665a2.593 2.593 0 0 1 1.117 3.5c-1.498 2.846-6.329 1.96-5.187-1.835zm86.827 5.482c-.5-.533-1.083-.981-1.622-1.469-6.971-6.323-10.658-12.448-18.771-17.472a.312.312 0 0 0-.452.347 2.36 2.36 0 0 1-1.03 2.144c-1.07.775-2.611-.1-3.605 1.409-.2.3-.467.806-.193 1.121.5.577 2.425 2.564 4.883 5.21a37.457 37.457 0 0 0-6.371 5.687 4.741 4.741 0 0 0-1.419 2.287c-.223 1.808 1.321 3.527 2.948 4.123 1.917.564 3.611-.992 4.938-2.141 1.782-1.543 3.735-2.873 5.517-4.415l1.3 1.426a14.919 14.919 0 0 0-3 3.251c-3.158 4.246 1.521 8.166 5 5.586 1.174-.818 1.5-1.24 3.927-3.934a12.091 12.091 0 0 0 2.856 2.6c5.355 3.489 8.425-2.174 5.094-5.76z"
          fill="#cd8b57"></path>
    <path d="M71.288 157.827a34.939 34.939 0 0 1-7.343-5.444c-.284-.275-.719.16-.434.435a35.594 35.594 0 0 0 7.466 5.539c.346.193.657-.338.311-.53zm6.264-11.574c.078-.386-.514-.551-.592-.163a65.185 65.185 0 0 0-1.281 12.632.307.307 0 0 0 .614 0 67.545 67.545 0 0 1 1.259-12.469zm9.432 11.118q-2.04 1.719-4.08 3.435c-.3.255.134.688.435.435l4.079-3.435c.303-.255-.134-.688-.434-.435zM63.77 58.969c-3.079-.006-6.158-.023-9.236-.034a.307.307 0 0 0 0 .614l6.471.024a28.573 28.573 0 0 0-20.755 28.7c.016.394.631.4.615 0a27.974 27.974 0 0 1 22.458-28.64 20.138 20.138 0 0 1-3.665 6.467c-.254.3.179.736.435.435a20.931 20.931 0 0 0 3.974-7.179.31.31 0 0 0-.297-.387zm104.799 21.359a12.587 12.587 0 0 1-3.465 6.523 40.463 40.463 0 0 0 .1-6.623c-.819-9.348-8.274-15.581-16.532-20.065-.345-.192-.656.338-.311.531 14.363 7.987 17.138 15.535 16.168 25.681-1.162-2.14-3.131-3.819-3.961-6.141-.132-.37-.726-.21-.592.163.972 2.72 3.5 4.551 4.475 7.263.041.227.34.272.515.137a12.613 12.613 0 0 0 4.2-7.306c.075-.386-.52-.552-.597-.163zM89.933 51.523a51.351 51.351 0 0 0 10.683-.6c.389-.063.225-.655-.163-.593a50.611 50.611 0 0 1-10.52.578c-.395-.019-.394.592 0 .615zM95.3 20.82a13.336 13.336 0 0 1 6.037 4.553c.232.315.765.008.53-.311a14.089 14.089 0 0 0-6.4-4.835c-.376-.138-.536.456-.167.593zm24.377-5.12c-.017.4.6.395.614 0a23.991 23.991 0 0 0-.415-5.533c-.074-.388-.667-.224-.592.163a23.415 23.415 0 0 1 .393 5.37zm25.687 5.922-4.414 3.785c-.3.257.136.691.435.434l4.413-3.784c.302-.257-.136-.691-.434-.435zm1.917 25.978 6.838-.564c.391-.033.394-.648 0-.615l-6.838.564c-.392.027-.395.642 0 .615zM19.477 159.475a.308.308 0 0 0-.311-.53 17.1 17.1 0 0 0-8.35 14.835.308.308 0 0 0 .615 0 16.478 16.478 0 0 1 8.046-14.305zm-4.822-1.1c.327-.219.02-.752-.31-.531a21.484 21.484 0 0 0-9.338 15.261c-.047.392.568.389.614 0a20.861 20.861 0 0 1 9.034-14.73zM120 172.951a13.383 13.383 0 0 1 1.746 9.97c-.084.386.508.55.593.164a14.041 14.041 0 0 0-1.809-10.444c-.214-.334-.746-.026-.53.31zm2.215-3.782a20.113 20.113 0 0 1 4.315 12.466.307.307 0 0 0 .614 0 20.824 20.824 0 0 0-4.5-12.9c-.244-.31-.672.127-.429.434z"
          fill="#000001"></path>
    <path d="M141.521 114.9c-.957.693-1.1 2.392-1.893 4.318-.144.485-.656.176-.6-.144.171-.924.661-2.92.65-3.505a1.426 1.426 0 0 0-.84-1.032c-.549-.225-.934.142-1.222.581a23.812 23.812 0 0 0-1.866 3.5c-.154.35-.608.072-.562-.237a10.068 10.068 0 0 0 .239-3.514.666.666 0 0 0-.75-.483c-.552.094-.806.681-1.037 1.119-.189.357-3.935 7.006-4 7.106a5.24 5.24 0 0 1-1.966 2.137c1.035 3.695 4.6 6.567 8.4 7.368 2.564-3.667 6.275-10.08 7-14.741.315-1.31-.498-3.15-1.553-2.473z"
          fill="#ffd2d2"></path>
    <path d="M140.285 115.547c-.209-1.562-2.21-2.444-3.138-.83-1.654 2.429-.894 2.341-1.058.388a1.323 1.323 0 0 0-1.768-1.261c-.887.424-.836.754-2.234 3.193-2.787 4.827-2.489 4.564-3.4 5.913-.8 1.383-1.8 1.159-1.674 1.695.888 3.652 4.455 7.2 9.122 8.109a.314.314 0 0 0 .3-.1c.99-1.032 6.506-9.637 7.286-15.465a3.2 3.2 0 0 0-.612-2.457c-.66-.842-2.067-.901-2.824.815zm2.8 1.819c-.726 4.658-4.433 11.066-7 14.741-3.818-.8-7.37-3.681-8.4-7.368a5.234 5.234 0 0 0 1.966-2.137c.061-.1 3.808-6.751 4-7.106.231-.438.485-1.025 1.037-1.119a.666.666 0 0 1 .75.483c.14.737.1 1.215-.239 3.514-.046.309.408.586.562.237a23.812 23.812 0 0 1 1.866-3.5c.288-.439.672-.806 1.222-.581a1.426 1.426 0 0 1 .84 1.032c.011.57-.483 2.6-.65 3.505-.058.314.415.579.562.237l.03-.075v-.018c.768-1.86.939-3.63 1.893-4.318 1.043-.663 1.87 1.149 1.561 2.473z"
          fill="#000001"></path>
    <path d="M81.807 133.5a1.9 1.9 0 0 1-2.539-1.246.308.308 0 0 0-.386-.2c-.81.252.852 2.878 3.088 2.04.359-.151.202-.743-.163-.594zm5.54-16.1c.227-.758.435-1.522.652-2.285a.291.291 0 0 0-.56-.154l-.652 2.284a.291.291 0 0 0 .56.155z"
          fill="#ffa850"></path>
    <path d="M164.5 163.51a94.512 94.512 0 0 0-3.4 10.908c-.094.384.5.548.593.163a94.966 94.966 0 0 1 3.4-10.908c.144-.373-.45-.529-.593-.163zm-.111-2.258a6.015 6.015 0 0 1-.9-4.5 3.976 3.976 0 0 1 2.938-2.8 11.551 11.551 0 0 1 4.78-.5 4.479 4.479 0 0 1 3 2.533 8.286 8.286 0 0 1 .252 5.48c-.091.384.5.548.593.163.943-3.267.219-7.246-3.11-8.6-1.645-.61-3.605-.2-5.251.22-4.192 1.061-4.9 4.781-2.827 8.317a.307.307 0 0 0 .525-.313zm15.681 13.139q-2.663-5.194-5.668-10.2a.308.308 0 0 0-.531.31q3 5 5.669 10.2c.18.352.711.041.53-.31zm-6.589 5.39-8.2.645c-.392.031-.4.646 0 .615l8.2-.645c.392-.031.395-.646 0-.615z"
          fill="#c98bef"></path>
    <path d="M175.789 170.889c-1.662-3.063-2.219-5.7-4.133-8.648a4.713 4.713 0 0 0 1.082-1.259 4.158 4.158 0 0 0-.789-4.571.149.149 0 0 0-.018-.03c-3.432-3.939-10.531.663-4.887 6.582-1.331 4.057-2.615 8.607-3.82 12.939a1.911 1.911 0 0 0 .046 1.418c.506.97 1.821.685 2.71.674a76.379 76.379 0 0 0 10.08-.948 2.783 2.783 0 0 0 1.451-.5c.989-.82.089-2.331-1.722-5.657zm-12.024 6.028a3.015 3.015 0 0 1 .269-1.621c3.74-13.277 3.837-12.36 3.572-12.622-1.4-1.484-2.937-3.942-1.453-5.877a3.125 3.125 0 0 1 2.321-1.233 2.974 2.974 0 0 0-2.122 3.226 5.838 5.838 0 0 0 2.251 3.787c-.612 4.56-3.319 8.6-4.017 13.062a1.7 1.7 0 0 0 .6 1.8c-.595.036-1.249.005-1.421-.522z"
          fill="#c98bef"></path>
    <path d="M181.215 130.466c-8.437-12.611-32.608-6.958-27.932 13 .094.337-.157.227 7.162-.068a.309.309 0 0 0 .307-.308q-.153-1.749-.235-3.5c-.793-7.879 10.581-11.355 15.093-4.338 2.274 3.534 1.475 7.333 2.258 7.215 1.869-.176 6.145-.583 6.414-.609.149-.014.331-.131.307-.307-.497-3.862-1.17-7.792-3.374-11.085z"
          fill="#dcbeff"></path>
    <path d="M166.129 99.175a.31.31 0 0 0 .483.063c1.389-1.745 2.7-3.55 4.089-5.3.244-.306-.188-.744-.434-.435-1.307 1.641-2.548 3.332-3.846 4.978a26.6 26.6 0 0 0-6.662-7.278c-.317-.238-.624.3-.311.53a25.812 25.812 0 0 1 6.681 7.442zm2.21 13.356-.041.1c-.145.368.45.528.593.164l4.182-10.686c.144-.368-.451-.528-.594-.163l-3.888 9.938-7.844-9.618c-.25-.306-.683.131-.435.435 8.094 9.928 7.925 9.763 8.027 9.83z"
          fill="#ffd869"></path>
    <path d="M175.036 110.469q-3 4.308-6.089 8.544c-.074-.1.1.059-7.915-5.828-.319-.235-.626.3-.31.53 8.645 6.35 7.933 5.888 8.113 5.82a.332.332 0 0 0 .509-.026q3.163-4.326 6.222-8.73c.226-.325-.306-.633-.53-.31z"
          fill="#ffd869"></path>
    <path d="M81.986 85.6a11.466 11.466 0 0 0-2.466-.213.307.307 0 0 0 0 .614 10.653 10.653 0 0 1 2.3.191c.389.071.555-.521.166-.592zm18.178-1.362a10.934 10.934 0 0 0-2.086.966.307.307 0 0 0-.1.424c.271.43.546-.182 2.345-.8.377-.128.217-.718-.159-.59z"
          fill="#000001"></path>
</svg>